SplineFontDB: 3.0
FontName: tazpanel
FullName: tazpanel
FamilyName: TazPanel
Weight: Book
Copyright: SliTaz GNU/Linux
UComments: "Iconic font for TazPanel"
Version: 1.0
ItalicAngle: 0
UnderlinePosition: 10
UnderlineWidth: 0
Ascent: 870
Descent: 154
InvalidEm: 0
LayerCount: 2
Layer: 0 1 "+BBcEMAQ0BD0EOAQ5 +BD8EOwQwBD0A" 1
Layer: 1 1 "+BB8ENQRABDUENAQ9BDgEOQAA +BD8EOwQwBD0A" 0
XUID: [1021 493 2128050387 8338812]
FSType: 8
OS2Version: 0
OS2_WeightWidthSlopeOnly: 0
OS2_UseTypoMetrics: 0
CreationTime: 1415725587
ModificationTime: 1449439718
PfmFamily: 81
TTFWeight: 400
TTFWidth: 5
LineGap: 92
VLineGap: 0
Panose: 5 0 0 0 0 0 0 0 0 0
OS2TypoAscent: 0
OS2TypoAOffset: 1
OS2TypoDescent: 0
OS2TypoDOffset: 1
OS2TypoLinegap: 92
OS2WinAscent: 0
OS2WinAOffset: 1
OS2WinDescent: 0
OS2WinDOffset: 1
HheadAscent: 0
HheadAOffset: 1
HheadDescent: 0
HheadDOffset: 1
OS2FamilyClass: 3072
OS2Vendor: 'PfEd'
OS2CodePages: 00000001.00000000
OS2UnicodeRanges: 00000000.10000000.00000000.00000000
Lookup: 4 0 1 "+BCQEQwQ9BDoERgQ4BE8A 'liga'" { "+BEEEPwRABDAEMgQ6BDAA 1"  } ['liga' ('DFLT' <'dflt' > 'latn' <'dflt' > ) ]
MarkAttachClasses: 1
DEI: 91125
LangName: 1033 "" "" "" "" "" "Version 1.0"
GaspTable: 1 65535 3 0
Encoding: Custom
UnicodeInterp: none
NameList: Adobe Glyph List
DisplaySize: -48
AntiAlias: 1
FitToEm: 0
WinInfo: 61744 16 4
BeginPrivate: 0
EndPrivate
TeXData: 1 0 0 346030 173015 115343 890880 1048576 115343 783286 444596 497025 792723 393216 433062 380633 303038 157286 324010 404750 52429 2506097 1059062 262144
BeginChars: 65537 138

StartChar: add
Encoding: 61696 61696 0
Width: 1024
VWidth: 1050
LigCaretCntFixed: 1
Flags: MW
LayerCount: 2
Back
Fore
SplineSet
384 512 m 1,0,-1
 384 384 l 1,1,-1
 256 384 l 1,2,-1
 256 256 l 1,3,-1
 384 256 l 1,4,-1
 384 128 l 1,5,-1
 512 128 l 1,6,-1
 512 256 l 1,7,-1
 640 256 l 1,8,-1
 640 384 l 1,9,-1
 512 384 l 1,10,-1
 512 512 l 1,11,-1
 384 512 l 1,0,-1
EndSplineSet
Refer: 113 61963 N 1 0 0 1 0 0 2
Validated: 1
Ligature2: "+BEEEPwRABDAEMgQ6BDAA 1" a d d
Colour: ff00
EndChar

StartChar: admin
Encoding: 61697 61697 1
Width: 1024
LigCaretCntFixed: 1
HStem: -64 192<576 768> 0 64<64 512 832 896> 256 192<192 384> 320 64<64 128 448 896> 576 192<384 576> 640 64<64 320 640 896>
VStem: 64 64<320 384> 192 192<256 448> 384 192<576 768> 576 192<-64 128> 832 64<0 64>
LayerCount: 2
Back
Fore
SplineSet
384 768 m 1,0,-1
 576 768 l 1,1,-1
 576 576 l 1,2,-1
 384 576 l 1,3,-1
 384 768 l 1,0,-1
192 448 m 1,4,-1
 384 448 l 1,5,-1
 384 256 l 1,6,-1
 192 256 l 1,7,-1
 192 448 l 1,4,-1
576 128 m 1,8,-1
 768 128 l 1,9,-1
 768 -64 l 1,10,-1
 576 -64 l 1,11,-1
 576 128 l 1,8,-1
512 64 m 1,12,-1
 512 0 l 1,13,-1
 64 0 l 1,14,-1
 64 64 l 1,15,-1
 512 64 l 1,12,-1
128 384 m 1,16,-1
 128 320 l 1,17,-1
 64 320 l 1,18,-1
 64 384 l 1,19,-1
 128 384 l 1,16,-1
320 704 m 1,20,-1
 320 640 l 1,21,-1
 64 640 l 1,22,-1
 64 704 l 1,23,-1
 320 704 l 1,20,-1
896 64 m 1,24,-1
 896 0 l 1,25,-1
 832 0 l 1,26,-1
 832 64 l 1,27,-1
 896 64 l 1,24,-1
896 384 m 1,28,-1
 896 320 l 1,29,-1
 448 320 l 1,30,-1
 448 384 l 1,31,-1
 896 384 l 1,28,-1
896 704 m 1,32,-1
 896 640 l 1,33,-1
 640 640 l 1,34,-1
 640 704 l 1,35,-1
 896 704 l 1,32,-1
EndSplineSet
Validated: 1
Ligature2: "+BEEEPwRABDAEMgQ6BDAA 1" a d m i n
Colour: ff00
EndChar

StartChar: back
Encoding: 61698 61698 2
Width: 1024
LigCaretCntFixed: 1
LayerCount: 2
Back
Fore
SplineSet
576 -32 m 1,0,-1
 192 352 l 1,1,-1
 576 736 l 1,2,-1
 704 608 l 1,3,-1
 448 352 l 1,4,-1
 704 96 l 1,5,-1
 576 -32 l 1,0,-1
EndSplineSet
Validated: 1
Ligature2: "+BEEEPwRABDAEMgQ6BDAA 1" b a c k
Colour: ff00
EndChar

StartChar: battery
Encoding: 61699 61699 3
Width: 1024
LigCaretCntFixed: 1
HStem: 0 192<128 192 640 704> 192 192<896 1024> 384 192<128 192 640 704>
VStem: 0 128<192 384> 704 128<192 256 320 384> 896 128<192 384>
CounterMasks: 1 e0
LayerCount: 2
Back
Fore
SplineSet
128 576 m 2,0,-1
 832 576 l 2,1,2
 880 576 880 576 920 536 c 128,-1,3
 960 496 960 496 960 448 c 1,4,-1
 896 448 l 1,5,6
 835 444 835 444 832 384 c 1,7,-1
 832 192 l 1,8,9
 836 139 836 139 880 130 c 1,10,11
 918 127 918 127 960 128 c 1,12,13
 960 80 960 80 920 40 c 128,-1,14
 880 0 880 0 832 0 c 2,15,-1
 128 0 l 2,16,17
 80 0 80 0 40 40 c 128,-1,18
 0 80 0 80 0 128 c 2,19,-1
 0 448 l 2,20,21
 0 496 0 496 40 536 c 128,-1,22
 80 576 80 576 128 576 c 2,0,-1
128 384 m 1,23,-1
 128 192 l 1,24,-1
 192 192 l 1,25,-1
 192 384 l 1,26,-1
 128 384 l 1,23,-1
640 384 m 1,27,-1
 640 320 l 1,28,-1
 576 320 l 1,29,-1
 576 256 l 1,30,-1
 640 256 l 1,31,-1
 640 192 l 1,32,-1
 704 192 l 1,33,-1
 704 256 l 1,34,-1
 768 256 l 1,35,-1
 768 320 l 1,36,-1
 704 320 l 1,37,-1
 704 384 l 1,38,-1
 640 384 l 1,27,-1
896 384 m 1,39,-1
 1024 384 l 1,40,-1
 1024 192 l 1,41,-1
 896 192 l 1,42,-1
 896 384 l 1,39,-1
EndSplineSet
Validated: 33
Ligature2: "+BEEEPwRABDAEMgQ6BDAA 1" b a t t e r y
Colour: ff00
EndChar

StartChar: brightness
Encoding: 61700 61700 4
Width: 1024
LigCaretCntFixed: 1
HStem: -63 129<448 512> 128 64<418.509 541.491> 256 64<129 129 702 831> 384 64<418.509 541.491> 510 129<448 512>
VStem: 129 129<256 320> 320 64<226.509 349.491> 448 64<-63 -63 510 639> 576 64<226.509 349.491> 702 129<256 320>
LayerCount: 2
Back
Fore
SplineSet
448 639 m 1,0,1
 480 641 480 641 512 639 c 1,2,-1
 512 510 l 1,3,4
 480 514 480 514 448 510 c 1,5,-1
 448 639 l 1,0,1
255 558 m 1,6,-1
 346 467 l 1,7,8
 322 450 322 450 301 422 c 1,9,-1
 210 513 l 1,10,11
 230 538 230 538 255 558 c 1,6,-1
705 558 m 1,12,13
 730 538 730 538 750 513 c 1,14,-1
 660 422 l 1,15,16
 640 447 640 447 614 467 c 1,17,-1
 705 558 l 1,12,13
129 320 m 1,18,-1
 258 320 l 1,19,20
 254 288 254 288 258 256 c 1,21,-1
 129 256 l 1,22,23
 127 288 127 288 129 320 c 1,18,-1
702 320 m 1,24,-1
 831 320 l 1,25,26
 833 288 833 288 831 256 c 1,27,-1
 702 256 l 1,28,29
 706 288 706 288 702 320 c 1,24,-1
660 154 m 1,30,-1
 750 63 l 1,31,32
 726 35 726 35 705 18 c 1,33,-1
 614 109 l 1,34,35
 638 126 638 126 660 154 c 1,30,-1
301 154 m 1,36,37
 319 129 319 129 346 108 c 1,38,-1
 255 18 l 1,39,40
 230 38 230 38 210 63 c 1,41,-1
 301 154 l 1,36,37
448 66 m 1,42,43
 480 62 480 62 512 66 c 1,44,-1
 512 -63 l 1,45,46
 480 -65 480 -65 448 -63 c 1,47,-1
 448 66 l 1,42,43
480 448 m 128,-1,49
 546 448 546 448 593 401 c 128,-1,50
 640 354 640 354 640 288 c 128,-1,51
 640 222 640 222 593 175 c 128,-1,52
 546 128 546 128 480 128 c 128,-1,53
 414 128 414 128 367 175 c 128,-1,54
 320 222 320 222 320 288 c 128,-1,55
 320 354 320 354 367 401 c 128,-1,48
 414 448 414 448 480 448 c 128,-1,49
480 384 m 128,-1,57
 440 384 440 384 412 356 c 128,-1,58
 384 328 384 328 384 288 c 128,-1,59
 384 248 384 248 412 220 c 128,-1,60
 440 192 440 192 480 192 c 128,-1,61
 520 192 520 192 548 220 c 128,-1,62
 576 248 576 248 576 288 c 128,-1,63
 576 328 576 328 548 356 c 128,-1,56
 520 384 520 384 480 384 c 128,-1,57
EndSplineSet
Validated: 33
Ligature2: "+BEEEPwRABDAEMgQ6BDAA 1" b r i g h t n e s s
Colour: ff00
EndChar

StartChar: cancel
Encoding: 61701 61701 5
Width: 1024
LigCaretCntFixed: 1
LayerCount: 2
Back
Fore
SplineSet
672 -64 m 1,0,-1
 480 128 l 1,1,-1
 288 -64 l 1,2,-1
 128 96 l 1,3,-1
 320 288 l 1,4,-1
 128 480 l 1,5,-1
 288 640 l 1,6,-1
 480 448 l 1,7,-1
 672 640 l 1,8,-1
 832 480 l 1,9,-1
 640 288 l 1,10,-1
 832 96 l 1,11,-1
 672 -64 l 1,0,-1
EndSplineSet
Validated: 1
Ligature2: "+BEEEPwRABDAEMgQ6BDAA 1" c a n c e l
Colour: ff00
EndChar

StartChar: cd
Encoding: 61702 61702 6
Width: 1024
HStem: -64 832<343.774 616.226> 256 192<418.269 541.731> 512 64<398.855 480> 640 64<368.472 480>
VStem: 64 832<215.774 488.226> 128 64<352 463.528> 256 64<352 433.145> 384 192<290.269 413.731>
LayerCount: 2
Back
Fore
SplineSet
480 704 m 1,0,1
 334 704 334 704 231 601 c 0,2,3
 128 498 128 498 128 352 c 1,4,-1
 192 352 l 1,5,6
 192 471 192 471 276.5 555.5 c 0,7,8
 361 640 361 640 480 640 c 1,9,-1
 480 704 l 1,0,1
480 576 m 1,10,11
 387 576 387 576 321.5 510.5 c 0,12,13
 256 445 256 445 256 352 c 1,14,-1
 320 352 l 1,15,16
 320 418 320 418 367 465 c 0,17,18
 414 512 414 512 480 512 c 1,19,-1
 480 576 l 1,10,11
480 448 m 0,20,21
 440 448 440 448 412 420 c 0,22,23
 384 392 384 392 384 352 c 0,24,25
 384 312 384 312 412 284 c 0,26,27
 440 256 440 256 480 256 c 0,28,29
 520 256 520 256 548 284 c 0,30,31
 576 312 576 312 576 352 c 0,32,33
 576 392 576 392 548 420 c 0,34,35
 520 448 520 448 480 448 c 0,20,21
EndSplineSet
Refer: 112 61964 N 1 0 0 1 0 0 2
Validated: 1
LCarets2: 1 0
Ligature2: "+BEEEPwRABDAEMgQ6BDAA 1" c d
Colour: ff00
EndChar

StartChar: check
Encoding: 61703 61703 7
Width: 1024
LayerCount: 2
Back
Fore
SplineSet
774 488 m 1,0,-1
 704 576 l 1,1,-1
 416 288 l 1,2,-1
 256 448 l 1,3,-1
 192 352 l 1,4,-1
 416 128 l 1,5,-1
 774 488 l 1,0,-1
EndSplineSet
Refer: 106 61961 N 1 0 0 1 0 0 2
Validated: 1
LCarets2: 4 0 0 0 0
Ligature2: "+BEEEPwRABDAEMgQ6BDAA 1" c h e c k
Colour: ff00
EndChar

StartChar: clock
Encoding: 61704 61704 8
Width: 1024
HStem: -64 128<367.056 592.944> 640 128<367.056 592.944>
VStem: 64 128<239.056 464.944> 448 64<384 576> 768 128<239.056 464.944>
CounterMasks: 1 38
LayerCount: 2
Back
Fore
SplineSet
448 576 m 1,0,-1
 512 576 l 1,1,-1
 512 384 l 1,2,-1
 640 256 l 1,3,-1
 576 192 l 1,4,-1
 448 320 l 1,5,-1
 448 576 l 1,0,-1
EndSplineSet
Refer: 114 61962 N 1 0 0 1 0 0 2
Validated: 1
LCarets2: 4 0 0 0 0
Ligature2: "+BEEEPwRABDAEMgQ6BDAA 1" c l o c k
Colour: ff00
EndChar

StartChar: conf
Encoding: 61705 61705 9
Width: 1024
HStem: -64 128<320 704> 128 64<320 704> 256 64<320 704> 384 64<528.376 704>
VStem: 128 192<64 128 192 256 320 384> 704 128<64 128 192 256 320 384>
LayerCount: 2
Back
Fore
SplineSet
320 128 m 1,0,-1
 320 64 l 1,1,-1
 704 64 l 1,2,-1
 704 128 l 1,3,-1
 320 128 l 1,0,-1
320 256 m 1,4,-1
 320 192 l 1,5,-1
 704 192 l 1,6,-1
 704 256 l 1,7,-1
 320 256 l 1,4,-1
320 384 m 1,8,-1
 320 320 l 1,9,-1
 704 320 l 1,10,-1
 704 384 l 1,11,-1
 320 384 l 1,8,-1
576 512 m 1,12,-1
 576 768 l 1,13,-1
 832 512 l 1,14,-1
 576 512 l 1,12,-1
512 512 m 1,15,16
 519 454 519 454 576 448 c 1,17,-1
 832 448 l 1,18,-1
 832 0 l 1,19,20
 824 -56 824 -56 768 -64 c 1,21,-1
 192 -64 l 1,22,23
 136 -56 136 -56 128 0 c 1,24,-1
 128 704 l 1,25,26
 136 760 136 760 192 768 c 1,27,-1
 512 768 l 1,28,-1
 512 512 l 1,15,16
EndSplineSet
Validated: 1
LCarets2: 3 0 0 0
Ligature2: "+BEEEPwRABDAEMgQ6BDAA 1" c o n f
Colour: ff00
EndChar

StartChar: daemons
Encoding: 61706 61706 10
Width: 1024
HStem: -64 192<321.113 446.887> -64 80<809.432 918.568> 176 80<809.432 918.568> 192 128<64 142.602 625.066 704> 384 192<321.113 446.887> 416 80<762.967 837.033> 592 80<762.967 837.033>
VStem: 64 192<193.113 318.887> 320 128<-64 14.5039 497.496 576> 512 192<193.113 318.887> 672 80<506.967 581.033> 704 80<41.4324 150.568> 848 80<506.967 581.033> 944 80<41.4324 150.568>
LayerCount: 2
Back
Fore
SplineSet
320 576 m 1,0,-1
 448 576 l 1,1,-1
 448 504 l 1,2,3
 481 496 481 496 514 476 c 1,4,-1
 565 527 l 1,5,-1
 656 437 l 1,6,-1
 605 386 l 1,7,8
 622 356 622 356 632 320 c 1,9,-1
 704 320 l 1,10,-1
 704 192 l 1,11,-1
 632 192 l 1,12,13
 622 156 622 156 605 126 c 1,14,-1
 656 75 l 1,15,-1
 565 -16 l 1,16,-1
 514 35 l 1,17,18
 483 17 483 17 448 8 c 1,19,-1
 448 -64 l 1,20,-1
 320 -64 l 1,21,-1
 320 8 l 1,22,23
 284 17 284 17 254 35 c 1,24,-1
 203 -16 l 1,25,-1
 112 75 l 1,26,-1
 164 126 l 1,27,28
 145 157 145 157 136 192 c 1,29,-1
 64 192 l 1,30,-1
 64 320 l 1,31,-1
 136 320 l 1,32,33
 146 356 146 356 164 386 c 1,34,-1
 112 437 l 1,35,-1
 203 528 l 1,36,-1
 254 477 l 1,37,38
 284 495 284 495 320 504 c 1,39,-1
 320 576 l 1,0,-1
384 384 m 128,-1,41
 331 384 331 384 293.5 346.5 c 128,-1,42
 256 309 256 309 256 256 c 128,-1,43
 256 203 256 203 293.5 165.5 c 128,-1,44
 331 128 331 128 384 128 c 128,-1,45
 437 128 437 128 474.5 165.5 c 128,-1,46
 512 203 512 203 512 256 c 128,-1,47
 512 309 512 309 474.5 346.5 c 128,-1,40
 437 384 437 384 384 384 c 128,-1,41
800 672 m 128,-1,49
 853 672 853 672 890.5 634.5 c 128,-1,50
 928 597 928 597 928 544 c 128,-1,51
 928 491 928 491 890.5 453.5 c 128,-1,52
 853 416 853 416 800 416 c 128,-1,53
 747 416 747 416 709.5 453.5 c 128,-1,54
 672 491 672 491 672 544 c 128,-1,55
 672 597 672 597 709.5 634.5 c 128,-1,48
 747 672 747 672 800 672 c 128,-1,49
800 592 m 128,-1,57
 780 592 780 592 766 578 c 128,-1,58
 752 564 752 564 752 544 c 128,-1,59
 752 524 752 524 766 510 c 128,-1,60
 780 496 780 496 800 496 c 128,-1,61
 820 496 820 496 834 510 c 128,-1,62
 848 524 848 524 848 544 c 128,-1,63
 848 564 848 564 834 578 c 128,-1,56
 820 592 820 592 800 592 c 128,-1,57
864 256 m 128,-1,65
 930 256 930 256 977 209 c 128,-1,66
 1024 162 1024 162 1024 96 c 128,-1,67
 1024 30 1024 30 977 -17 c 128,-1,68
 930 -64 930 -64 864 -64 c 128,-1,69
 798 -64 798 -64 751 -17 c 128,-1,70
 704 30 704 30 704 96 c 128,-1,71
 704 162 704 162 751 209 c 128,-1,64
 798 256 798 256 864 256 c 128,-1,65
864 176 m 128,-1,73
 831 176 831 176 807.5 152.5 c 128,-1,74
 784 129 784 129 784 96 c 128,-1,75
 784 63 784 63 807.5 39.5 c 128,-1,76
 831 16 831 16 864 16 c 128,-1,77
 897 16 897 16 920.5 39.5 c 128,-1,78
 944 63 944 63 944 96 c 128,-1,79
 944 129 944 129 920.5 152.5 c 128,-1,72
 897 176 897 176 864 176 c 128,-1,73
EndSplineSet
Validated: 1
LCarets2: 6 0 0 0 0 0 0
Ligature2: "+BEEEPwRABDAEMgQ6BDAA 1" d a e m o n s
Colour: ff00
EndChar

StartChar: delete
Encoding: 61707 61707 11
Width: 1024
HStem: -64 832<343.774 616.226>
VStem: 64 832<215.774 488.226>
LayerCount: 2
Back
Fore
SplineSet
352 576 m 1,0,-1
 256 480 l 1,1,-1
 384 352 l 1,2,-1
 256 224 l 1,3,-1
 352 128 l 1,4,-1
 480 256 l 1,5,-1
 608 128 l 1,6,-1
 704 224 l 1,7,-1
 576 352 l 1,8,-1
 704 480 l 1,9,-1
 608 576 l 1,10,-1
 480 448 l 1,11,-1
 352 576 l 1,0,-1
EndSplineSet
Refer: 112 61964 N 1 0 0 1 0 0 2
Validated: 1
LCarets2: 5 0 0 0 0 0
Ligature2: "+BEEEPwRABDAEMgQ6BDAA 1" d e l e t e
Colour: ff00
EndChar

StartChar: detect
Encoding: 61708 61708 12
Width: 1024
HStem: 640 128<256 448 576 768>
VStem: 64 320<-32 185.088> 256 192<640 768> 448 128<256 608> 576 192<640 768> 640 320<-32 185.088>
LayerCount: 2
Back
Fore
SplineSet
416 608 m 1,0,-1
 416 224 l 1,1,-1
 384 192 l 1,2,-1
 384 -32 l 1,3,-1
 352 -64 l 1,4,-1
 96 -64 l 1,5,-1
 64 -32 l 1,6,-1
 64 160 l 1,7,-1
 192 608 l 1,8,-1
 416 608 l 1,0,-1
576 608 m 1,9,-1
 576 256 l 1,10,-1
 448 256 l 1,11,-1
 448 608 l 1,12,-1
 576 608 l 1,9,-1
608 608 m 1,13,-1
 832 608 l 1,14,-1
 960 160 l 1,15,-1
 960 -32 l 1,16,-1
 928 -64 l 1,17,-1
 672 -64 l 1,18,-1
 640 -32 l 1,19,-1
 640 192 l 1,20,-1
 608 224 l 1,21,-1
 608 608 l 1,13,-1
448 640 m 1,22,-1
 256 640 l 1,23,-1
 256 768 l 1,24,-1
 448 768 l 1,25,-1
 448 640 l 1,22,-1
768 640 m 1,26,-1
 576 640 l 1,27,-1
 576 768 l 1,28,-1
 768 768 l 1,29,-1
 768 640 l 1,26,-1
EndSplineSet
Validated: 1
LCarets2: 5 0 0 0 0 0
Ligature2: "+BEEEPwRABDAEMgQ6BDAA 1" d e t e c t
Colour: ff00
EndChar

StartChar: diff
Encoding: 61709 61709 13
Width: 1024
HStem: -64 128<256 768> 320 128<256 448 576 768>
VStem: 448 128<128 320 448 640>
LayerCount: 2
Back
Fore
SplineSet
448 640 m 1,0,-1
 576 640 l 1,1,-1
 576 448 l 1,2,-1
 768 448 l 1,3,-1
 768 320 l 1,4,-1
 576 320 l 1,5,-1
 576 128 l 1,6,-1
 448 128 l 1,7,-1
 448 320 l 1,8,-1
 256 320 l 1,9,-1
 256 448 l 1,10,-1
 448 448 l 1,11,-1
 448 640 l 1,0,-1
256 64 m 1,12,-1
 768 64 l 1,13,-1
 768 -64 l 1,14,-1
 256 -64 l 1,15,-1
 256 64 l 1,12,-1
EndSplineSet
Validated: 1
LCarets2: 3 0 0 0
Ligature2: "+BEEEPwRABDAEMgQ6BDAA 1" d i f f
Colour: ff00
EndChar

StartChar: download
Encoding: 61710 61710 14
Width: 1024
HStem: 0 64<640 704 768 832> 128 128<640 704 768 832>
VStem: 384 192<512 768> 704 64<64 128> 832 64<64 128>
LayerCount: 2
Back
Fore
SplineSet
384 768 m 1,0,-1
 576 768 l 1,1,-1
 576 512 l 1,2,-1
 768 512 l 1,3,-1
 480 224 l 1,4,-1
 192 512 l 1,5,-1
 384 512 l 1,6,-1
 384 768 l 1,0,-1
96 256 m 1,7,-1
 384 256 l 1,8,-1
 480 159 l 1,9,-1
 576 256 l 1,10,-1
 864 256 l 1,11,-1
 896 224 l 1,12,-1
 896 32 l 1,13,-1
 864 0 l 1,14,-1
 96 0 l 1,15,-1
 64 32 l 1,16,-1
 64 224 l 1,17,-1
 96 256 l 1,7,-1
640 128 m 1,18,-1
 640 64 l 1,19,-1
 704 64 l 1,20,-1
 704 128 l 1,21,-1
 640 128 l 1,18,-1
768 128 m 1,22,-1
 768 64 l 1,23,-1
 832 64 l 1,24,-1
 832 128 l 1,25,-1
 768 128 l 1,22,-1
EndSplineSet
Validated: 1
LCarets2: 7 0 0 0 0 0 0 0
Ligature2: "+BEEEPwRABDAEMgQ6BDAA 1" d o w n l o a d
Colour: ff00
EndChar

StartChar: edit
Encoding: 61711 61711 15
Width: 1024
HStem: -64 128<192 352> 622 146<568 647.5>
VStem: 64 128<64 224> 749 147<439 521>
LayerCount: 2
Back
Fore
SplineSet
320 128 m 1,0,-1
 320 192 l 1,1,-1
 256 192 l 1,2,-1
 256 224 l 1,3,-1
 288 256 l 1,4,-1
 384 160 l 1,5,-1
 352 128 l 1,6,-1
 320 128 l 1,0,-1
512 448 m 1,7,-1
 352 288 l 1,8,-1
 320 288 l 1,9,-1
 480 448 l 1,10,-1
 512 448 l 1,7,-1
192 64 m 1,11,-1
 352 64 l 1,12,-1
 640 352 l 1,13,-1
 480 512 l 1,14,-1
 192 224 l 1,15,-1
 192 64 l 1,11,-1
736 448 m 1,16,17
 764 478 764 478 736 512 c 1,18,-1
 640 608 l 2,19,20
 615 632 615 632 585 615 c 1,21,-1
 512 544 l 1,22,-1
 672 384 l 1,23,-1
 736 448 l 1,16,17
EndSplineSet
Refer: 106 61961 N 1 0 0 1 0 0 2
Validated: 33
LCarets2: 3 0 0 0
Ligature2: "+BEEEPwRABDAEMgQ6BDAA 1" e d i t
Colour: ff00
EndChar

StartChar: eth
Encoding: 61712 61712 16
Width: 1024
HStem: -64 64<145.718 814.282> 704 64<145.718 814.282>
VStem: 64 64<17.7183 686.282> 192 128<145.578 255.715> 384 64<128 255.715> 512 64<128 255.715> 640 128<145.578 255.715> 832 64<17.7183 686.282>
LayerCount: 2
Back
Fore
SplineSet
192 704 m 2,0,1
 168 704 168 704 148 684 c 0,2,3
 128 664 128 664 128 640 c 2,4,-1
 128 64 l 2,5,6
 128 40 128 40 148 20 c 0,7,8
 168 0 168 0 192 0 c 2,9,-1
 768 0 l 2,10,11
 792 0 792 0 812 20 c 0,12,13
 832 40 832 40 832 64 c 2,14,-1
 832 640 l 2,15,16
 832 664 832 664 812 684 c 0,17,18
 792 704 792 704 768 704 c 2,19,-1
 192 704 l 2,0,1
448 640 m 2,20,-1
 512 640 l 2,21,22
 536 640 536 640 556 620 c 0,23,24
 576 600 576 600 576 576 c 2,25,-1
 576 512 l 1,26,-1
 704 512 l 2,27,28
 728 512 728 512 748 492 c 4,29,30
 768 472 768 472 768 448 c 2,31,-1
 768 192 l 2,32,33
 768 168 768 168 748 148 c 0,34,35
 728 128 728 128 704 128 c 2,36,-1
 640 128 l 1,37,-1
 640 224 l 2,38,39
 640 247 640 247 624 256 c 0,40,41
 608 265 608 265 592 256 c 0,42,43
 576 247 576 247 576 224 c 2,44,-1
 576 128 l 1,45,-1
 512 128 l 1,46,-1
 512 224 l 2,47,48
 512 247 512 247 496 256 c 0,49,50
 480 265 480 265 464 256 c 0,51,52
 448 247 448 247 448 224 c 2,53,-1
 448 128 l 1,54,-1
 384 128 l 1,55,-1
 384 224 l 2,56,57
 384 247 384 247 368 256 c 0,58,59
 352 265 352 265 336 256 c 0,60,61
 320 247 320 247 320 224 c 2,62,-1
 320 128 l 1,63,-1
 256 128 l 2,64,65
 232 128 232 128 212 148 c 0,66,67
 192 168 192 168 192 192 c 2,68,-1
 192 448 l 2,69,70
 192 472 192 472 212 492 c 0,71,72
 232 512 232 512 256 512 c 2,73,-1
 384 512 l 1,74,-1
 384 576 l 2,75,76
 384 600 384 600 404 620 c 0,77,78
 424 640 424 640 448 640 c 2,20,-1
EndSplineSet
Refer: 106 61961 N 1 0 0 1 0 0 2
Validated: 1
LCarets2: 2 0 0
Ligature2: "+BEEEPwRABDAEMgQ6BDAA 1" e t h
Colour: ff00
EndChar

StartChar: group
Encoding: 61713 61713 17
Width: 1024
HStem: -64 256<406.298 619.035> 256 256<-0.0957031 166.517 856.345 1024> 576 192<98.8154 221.185 805.19 924.153>
VStem: -0.0957031 263.695<343.269 512> 64 192<610.815 733.185> 320 384<357.693 538.307> 760.3 263.7<343.213 512> 768.1 192<609.216 731.584>
LayerCount: 2
Back
Fore
SplineSet
312.599609375 287 m 1,0,1
 390.237054024 192 390.237054024 192 512.599770819 192.236018661 c 128,-1,2
 634.962487614 192.472037321 634.962487614 192.472037321 711.400390625 287 c 1,3,4
 755.96092483 271.165721825 755.96092483 271.165721825 792.839961255 248.474950957 c 0,5,6
 896 184.168192979 896 184.168192979 896 96 c 2,7,-1
 896 -64 l 1,8,-1
 128 -64 l 1,9,-1
 128 96 l 2,10,11
 128.245479472 127.402835039 128.245479472 127.402835039 143.100392575 158.327069631 c 0,12,13
 184.642135787 241.919813109 184.642135787 241.919813109 312.599609375 287 c 1,0,1
256 672 m 0,14,15
 256 619.018279298 256 619.018279298 211.080006705 590.716878043 c 0,16,17
 187.114717224 576.305153904 187.114717224 576.305153904 160 576 c 0,18,19
 107.018279298 576 107.018279298 576 78.7168780433 620.919993295 c 0,20,21
 64.3051539044 644.885282776 64.3051539044 644.885282776 64 672 c 0,22,23
 64 724.981720702 64 724.981720702 108.919993295 753.283121957 c 0,24,25
 132.885282776 767.694846096 132.885282776 767.694846096 160 768 c 0,26,27
 212.981720702 768 212.981720702 768 241.283121957 723.080006705 c 0,28,29
 255.694846096 699.114717224 255.694846096 699.114717224 256 672 c 0,14,15
884.5 256 m 1,30,31
 851.181150502 287.013071187 851.181150502 287.013071187 745.400390625 342.700195312 c 1,32,33
 752.498678776 358.862647772 752.498678776 358.862647772 764.799804688 407.900390625 c 1,34,35
 773.697187835 461.088199589 773.697187835 461.088199589 760.299804688 512 c 1,36,-1
 1024 512 l 1,37,-1
 1024 256 l 1,38,-1
 884.5 256 l 1,30,31
704 448 m 0,39,40
 704 358.48260666 704 358.48260666 635.288762536 300.844109979 c 0,41,42
 581.173448753 256.403173095 581.173448753 256.403173095 512 256 c 0,43,44
 422.48260666 256 422.48260666 256 364.844109979 324.711237464 c 0,45,46
 320.403173095 378.826551247 320.403173095 378.826551247 320 448 c 0,47,48
 320 537.51739334 320 537.51739334 388.711237464 595.155890021 c 0,49,50
 442.826551247 639.596826905 442.826551247 639.596826905 512 640 c 0,51,52
 601.51739334 640 601.51739334 640 659.155890021 571.288762536 c 0,53,54
 703.596826905 517.173448753 703.596826905 517.173448753 704 448 c 0,39,40
960.099609375 670.400390625 m 0,55,56
 960.099609375 617.418669923 960.099609375 617.418669923 915.17961608 589.117268668 c 0,57,58
 891.214326599 574.705544529 891.214326599 574.705544529 864.099609375 574.400390625 c 0,59,60
 811.118474644 574.400390625 811.118474644 574.400390625 782.816724751 619.32038392 c 0,61,62
 768.404769193 643.285758824 768.404769193 643.285758824 768.099609375 670.400390625 c 0,63,64
 768.099609375 723.381279386 768.099609375 723.381279386 813.020035452 751.683275249 c 0,65,66
 836.985416073 766.095227673 836.985416073 766.095227673 864.099609375 766.400390625 c 0,67,68
 917.08108411 766.400390625 917.08108411 766.400390625 945.382731332 721.479964548 c 0,69,70
 959.794452337 697.51466935 959.794452337 697.51466935 960.099609375 670.400390625 c 0,55,56
278.5 342.700195312 m 1,71,72
 171.911424954 286.635716437 171.911424954 286.635716437 139.400390625 256 c 1,73,-1
 -0.095703125 256 l 1,74,-1
 -0.095703125 512 l 1,75,-1
 263.599609375 512 l 1,76,77
 250.333482347 461.589868869 250.333482347 461.589868869 259.099609375 407.900390625 c 0,78,79
 270.712743037 360.666760074 270.712743037 360.666760074 278.5 342.700195312 c 1,71,72
EndSplineSet
Validated: 33
LCarets2: 4 0 0 0 0
Ligature2: "+BEEEPwRABDAEMgQ6BDAA 1" g r o u p
Colour: ff00
EndChar

StartChar: grub
Encoding: 61714 61714 18
Width: 1024
LayerCount: 2
Back
Fore
SplineSet
320 704 m 2,0,1
 267 703 267 703 247 685 c 1,2,3
 196 647 196 647 192 576 c 1,4,-1
 192 128 l 1,5,6
 198 41 198 41 258 14 c 1,7,8
 284 0 284 0 320 0 c 2,9,-1
 512 0 l 1,10,11
 573 4 573 4 576 64 c 1,12,-1
 576 0 l 1,13,-1
 768 0 l 1,14,-1
 768 320 l 1,15,-1
 576 320 l 1,16,-1
 576 192 l 1,17,18
 572 149 572 149 543 135 c 0,19,20
 528 128 528 128 512 128 c 2,21,-1
 448 128 l 1,22,23
 387 132 387 132 384 192 c 1,24,-1
 384 512 l 1,25,26
 388 555 388 555 417 569 c 0,27,28
 432 576 432 576 448 576 c 2,29,-1
 512 576 l 1,30,31
 573 572 573 572 576 512 c 1,32,-1
 768 512 l 1,33,-1
 768 576 l 1,34,35
 762 663 762 663 702 690 c 1,36,37
 676 704 676 704 640 704 c 2,38,-1
 320 704 l 2,0,1
EndSplineSet
Refer: 106 61961 N 1 0 0 1 0 0 2
Validated: 1
LCarets2: 3 0 0 0
Ligature2: "+BEEEPwRABDAEMgQ6BDAA 1" g r u b
Colour: ff00
EndChar

StartChar: hdd
Encoding: 61715 61715 19
Width: 1024
HStem: -64 64<128 896> 64 64<768 832> 192 512<192 832>
VStem: 64 64<0 192> 768 64<64 128> 896 64<0 192>
LayerCount: 2
Back
Fore
SplineSet
64 256 m 1,0,-1
 192 704 l 1,1,-1
 832 704 l 1,2,-1
 960 256 l 1,3,-1
 960 -64 l 1,4,-1
 64 -64 l 1,5,-1
 64 256 l 1,0,-1
128 192 m 1,6,-1
 128 0 l 1,7,-1
 896 0 l 1,8,-1
 896 192 l 1,9,-1
 128 192 l 1,6,-1
768 64 m 1,10,-1
 768 128 l 1,11,-1
 832 128 l 1,12,-1
 832 64 l 1,13,-1
 768 64 l 1,10,-1
EndSplineSet
Validated: 1
LCarets2: 2 0 0
Ligature2: "+BEEEPwRABDAEMgQ6BDAA 1" h d d
Colour: ff00
EndChar

StartChar: help
Encoding: 61716 61716 20
Width: 1024
HStem: -64 256<361 599> 512 256<361 599>
VStem: 64 256<233 471> 640 256<233 471>
LayerCount: 2
Back
Fore
SplineSet
658 658 m 1,0,1
 483 748 483 748 304 656 c 1,2,-1
 399 561 l 1,3,4
 480 591 480 591 561 561 c 1,5,-1
 658 658 l 1,0,1
271 271 m 1,6,7
 241 352 241 352 271 433 c 1,8,-1
 175 529 l 1,9,10
 85 356 85 356 175 175 c 1,11,-1
 271 271 l 1,6,7
689 433 m 1,12,13
 719 352 719 352 689 271 c 1,14,-1
 785 175 l 1,15,16
 878 352 878 352 784 528 c 1,17,-1
 689 433 l 1,12,13
480 512 m 0,18,19
 414 512 414 512 367 465 c 0,20,21
 320 418 320 418 320 352 c 0,22,23
 320 286 320 286 367 239 c 0,24,25
 414 192 414 192 480 192 c 0,26,27
 546 192 546 192 593 239 c 0,28,29
 640 286 640 286 640 352 c 0,30,31
 640 418 640 418 593 465 c 0,32,33
 546 512 546 512 480 512 c 0,18,19
561 143 m 1,34,35
 480 113 480 113 399 143 c 1,36,-1
 304 48 l 1,37,38
 490 -50 490 -50 656 48 c 1,39,-1
 561 143 l 1,34,35
EndSplineSet
Refer: 112 61964 N 1 0 0 1 0 0 2
Validated: 33
LCarets2: 3 0 0 0
Ligature2: "+BEEEPwRABDAEMgQ6BDAA 1" h e l p
Colour: ff00
EndChar

StartChar: history
Encoding: 61717 61717 21
Width: 1024
HStem: -64 128<367.056 592.944> 320 64<320 448> 640 128<367.056 592.944>
VStem: 64 128<239.056 464.944> 448 64<384 576> 768 128<239.056 464.944>
CounterMasks: 1 fc
LayerCount: 2
Back
Fore
SplineSet
448 576 m 1,0,-1
 512 576 l 1,1,-1
 512 320 l 1,2,-1
 320 320 l 1,3,-1
 320 384 l 1,4,-1
 448 384 l 1,5,-1
 448 576 l 1,0,-1
EndSplineSet
Refer: 114 61962 N 1 0 0 1 0 0 2
Validated: 1
LCarets2: 6 0 0 0 0 0 0
Ligature2: "+BEEEPwRABDAEMgQ6BDAA 1" h i s t o r y
Colour: ff00
EndChar

StartChar: info
Encoding: 61718 61718 22
Width: 1024
HStem: -64 768<381.775 642.225>
VStem: 128 768<189.775 450.225>
LayerCount: 2
Back
Fore
SplineSet
448 640 m 1,0,-1
 448 512 l 1,1,-1
 576 512 l 1,2,-1
 576 640 l 1,3,-1
 448 640 l 1,0,-1
384 448 m 1,4,-1
 384 384 l 1,5,-1
 448 384 l 1,6,-1
 448 128 l 1,7,-1
 384 128 l 1,8,-1
 384 64 l 1,9,-1
 640 64 l 1,10,-1
 640 128 l 1,11,-1
 576 128 l 1,12,-1
 576 448 l 1,13,-1
 384 448 l 1,4,-1
EndSplineSet
Refer: 113 61963 N 1 0 0 1 64 0 2
Validated: 1
LCarets2: 3 0 0 0
Ligature2: "+BEEEPwRABDAEMgQ6BDAA 1" i n f o
Colour: ff00
EndChar

StartChar: link
Encoding: 61720 61720 24
Width: 1024
LayerCount: 2
Back
Fore
SplineSet
224 736 m 1,0,1
 288 784 288 784 352 736 c 1,2,-1
 512 576 l 1,3,4
 560 512 560 512 512 448 c 1,5,-1
 480 416 l 1,6,-1
 544 352 l 1,7,-1
 576 384 l 1,8,9
 640 432 640 432 704 384 c 1,10,-1
 864 224 l 1,11,12
 912 160 912 160 864 96 c 1,13,-1
 736 -32 l 1,14,15
 672 -80 672 -80 608 -32 c 1,16,-1
 448 128 l 1,17,18
 400 192 400 192 448 256 c 1,19,-1
 480 288 l 1,20,-1
 416 352 l 1,21,-1
 384 320 l 1,22,23
 320 272 320 272 256 320 c 1,24,-1
 96 480 l 1,25,26
 48 544 48 544 96 608 c 1,27,-1
 224 736 l 1,0,1
320 640 m 1,28,29
 288 664 288 664 256 640 c 1,30,-1
 192 576 l 1,31,32
 168 544 168 544 192 512 c 1,33,-1
 288 416 l 1,34,35
 320 392 320 392 352 416 c 1,36,-1
 320 448 l 1,37,38
 294 479 294 479 320 512 c 1,39,40
 345 536 345 536 375 519 c 1,41,42
 397 501 397 501 416 480 c 1,43,44
 440 512 440 512 416 544 c 1,45,-1
 320 640 l 1,28,29
672 288 m 1,46,47
 640 312 640 312 608 288 c 1,48,-1
 640 256 l 1,49,50
 666 225 666 225 640 192 c 1,51,52
 615 168 615 168 585 185 c 1,53,54
 563 203 563 203 544 224 c 1,55,56
 520 192 520 192 544 160 c 1,57,-1
 640 64 l 1,58,59
 672 40 672 40 704 64 c 1,60,-1
 768 128 l 1,61,62
 792 160 792 160 768 192 c 1,63,-1
 672 288 l 1,46,47
EndSplineSet
Validated: 33
LCarets2: 3 0 0 0
Ligature2: "+BEEEPwRABDAEMgQ6BDAA 1" l i n k
Colour: ff00
EndChar

StartChar: list
Encoding: 61721 61721 25
Width: 1024
HStem: -64 192<82.1016 237.898 320 896> 192 192<82.1016 237.898 320 896> 448 192<82.1016 237.898 320 896>
VStem: 64 192<-45.8984 109.898 210.102 365.898 466.102 621.898> 320 576<-64 128 192 384 448 640>
CounterMasks: 1 e0
LayerCount: 2
Back
Fore
SplineSet
192 128 m 1,0,1
 247.89 120.11 247.89 120.11 256 64 c 1,2,-1
 256 0 l 1,3,4
 248.11 -55.8902 248.11 -55.8902 192 -64 c 1,5,-1
 128 -64 l 1,6,7
 72.1098 -56.1098 72.1098 -56.1098 64 0 c 1,8,-1
 64 64 l 1,9,10
 71.8902 119.89 71.8902 119.89 128 128 c 1,11,-1
 192 128 l 1,0,1
192 384 m 1,12,13
 247.89 376.11 247.89 376.11 256 320 c 1,14,-1
 256 256 l 1,15,16
 248.11 200.11 248.11 200.11 192 192 c 1,17,-1
 128 192 l 1,18,19
 72.1098 199.89 72.1098 199.89 64 256 c 1,20,-1
 64 320 l 1,21,22
 71.8902 375.89 71.8902 375.89 128 384 c 1,23,-1
 192 384 l 1,12,13
896 -64 m 1,24,-1
 320 -64 l 1,25,-1
 320 128 l 1,26,-1
 896 128 l 1,27,-1
 896 -64 l 1,24,-1
192 640 m 1,28,29
 247.89 632.11 247.89 632.11 256 576 c 1,30,-1
 256 512 l 1,31,32
 248.11 456.11 248.11 456.11 192 448 c 1,33,-1
 128 448 l 1,34,35
 72.1098 455.89 72.1098 455.89 64 512 c 1,36,-1
 64 576 l 1,37,38
 71.8902 631.89 71.8902 631.89 128 640 c 1,39,-1
 192 640 l 1,28,29
896 192 m 1,40,-1
 320 192 l 1,41,-1
 320 384 l 1,42,-1
 896 384 l 1,43,-1
 896 192 l 1,40,-1
896 640 m 1,44,-1
 896 448 l 1,45,-1
 320 448 l 1,46,-1
 320 640 l 1,47,-1
 896 640 l 1,44,-1
EndSplineSet
Validated: 1
LCarets2: 3 0 0 0
Ligature2: "+BEEEPwRABDAEMgQ6BDAA 1" l i s t
Colour: ff00
EndChar

StartChar: locale
Encoding: 61722 61722 26
Width: 1024
VStem: 36 120.5<583.144 687.578> 64 64<-64 576>
LayerCount: 2
Back
Fore
SplineSet
128 -64 m 1,0,-1
 64 -64 l 1,1,-1
 64 576 l 1,2,3
 32 608 32 608 36 652 c 128,-1,4
 40 696 40 696 96 696 c 128,-1,5
 152 696 152 696 156.5 651.5 c 128,-1,6
 161 607 161 607 136 585 c 1,7,-1
 128 576 l 1,8,-1
 128 -64 l 1,0,-1
672 576 m 1,9,10
 802 588 802 588 896 640 c 1,11,-1
 896 192 l 1,12,13
 804 143 804 143 672 128 c 1,14,-1
 416 192 l 1,15,16
 286 180 286 180 192 128 c 1,17,-1
 192 544 l 1,18,19
 278 616 278 616 416 640 c 1,20,-1
 672 576 l 1,9,10
EndSplineSet
Validated: 33
LCarets2: 5 0 0 0 0 0
Ligature2: "+BEEEPwRABDAEMgQ6BDAA 1" l o c a l e
Colour: ff00
EndChar

StartChar: lock
Encoding: 61723 61723 27
Width: 1024
HStem: -64 128<352 480> 576 128<359.542 472.458>
VStem: 192 128<384 530.701> 512 128<384 530.701>
LayerCount: 2
Back
Fore
SplineSet
416 704 m 128,-1,1
 509 704 509 704 574.5 625.5 c 128,-1,2
 640 547 640 547 640 448 c 2,3,-1
 640 384 l 1,4,-1
 704 384 l 1,5,-1
 704 -64 l 1,6,-1
 128 -64 l 1,7,-1
 128 384 l 1,8,-1
 192 384 l 1,9,-1
 192 448 l 2,10,11
 192 547 192 547 257.5 625.5 c 128,-1,0
 323 704 323 704 416 704 c 128,-1,1
416 576 m 128,-1,13
 371 576 371 576 345.5 538 c 128,-1,14
 320 500 320 500 320 448 c 2,15,-1
 320 384 l 1,16,-1
 512 384 l 1,17,-1
 512 448 l 2,18,19
 512 500 512 500 486.5 538 c 128,-1,12
 461 576 461 576 416 576 c 128,-1,13
416 192 m 1,20,-1
 352 64 l 1,21,-1
 480 64 l 1,22,-1
 416 192 l 1,20,-1
EndSplineSet
Validated: 1
LCarets2: 3 0 0 0
Ligature2: "+BEEEPwRABDAEMgQ6BDAA 1" l o c k
Colour: ff00
EndChar

StartChar: loopback
Encoding: 61725 61725 29
Width: 1024
HStem: 64 128<128 704> 384 128<256 704>
VStem: 704 128<192 384>
LayerCount: 2
Back
Fore
SplineSet
704 512 m 2,0,1
 752 512 752 512 792 472 c 128,-1,2
 832 432 832 432 832 384 c 2,3,-1
 832 192 l 2,4,5
 832 144 832 144 792 104 c 128,-1,6
 752 64 752 64 704 64 c 2,7,-1
 128 64 l 1,8,-1
 128 192 l 1,9,-1
 704 192 l 1,10,-1
 704 384 l 1,11,-1
 256 384 l 1,12,-1
 256 256 l 1,13,-1
 64 448 l 1,14,-1
 256 640 l 1,15,-1
 256 512 l 1,16,-1
 704 512 l 2,0,1
EndSplineSet
Validated: 1
LCarets2: 7 0 0 0 0 0 0 0
Ligature2: "+BEEEPwRABDAEMgQ6BDAA 1" l o o p b a c k
Colour: ff00
EndChar

StartChar: modules
Encoding: 61726 61726 30
Width: 1024
VStem: 663 49<411 524> 884 49<113 227>
LayerCount: 2
Back
Fore
SplineSet
442 113 m 1,0,-1
 442 227 l 1,1,-1
 270 128 l 1,2,-1
 270 14 l 1,3,-1
 442 113 l 1,0,-1
246 170 m 1,4,-1
 417 269 l 1,5,-1
 246 368 l 1,6,-1
 74 269 l 1,7,-1
 246 170 l 1,4,-1
712 14 m 1,8,-1
 884 113 l 1,9,-1
 884 227 l 1,10,-1
 712 128 l 1,11,-1
 712 14 l 1,8,-1
687 170 m 1,12,-1
 859 269 l 1,13,-1
 687 368 l 1,14,-1
 516 269 l 1,15,-1
 687 170 l 1,12,-1
516 326 m 1,16,-1
 663 411 l 1,17,-1
 663 524 l 1,18,-1
 516 439 l 1,19,-1
 516 326 l 1,16,-1
466 468 m 1,20,-1
 638 567 l 1,21,-1
 466 666 l 1,22,-1
 295 567 l 1,23,-1
 466 468 l 1,20,-1
933 85 m 1,24,-1
 687 -57 l 1,25,-1
 466 71 l 1,26,-1
 246 -57 l 1,27,-1
 0 85 l 1,28,-1
 0 284 l 1,29,-1
 221 411 l 1,30,-1
 221 581 l 1,31,-1
 466 723 l 1,32,-1
 712 581 l 1,33,-1
 712 411 l 1,34,-1
 933 284 l 1,35,-1
 933 85 l 1,24,-1
EndSplineSet
Validated: 1
LCarets2: 6 0 0 0 0 0 0
Ligature2: "+BEEEPwRABDAEMgQ6BDAA 1" m o d u l e s
Colour: ff00
EndChar

StartChar: ok
Encoding: 61727 61727 31
Width: 1024
LayerCount: 2
Back
Fore
SplineSet
960 544 m 1,0,-1
 416 0 l 1,1,-1
 64 352 l 1,2,-1
 192 480 l 1,3,-1
 416 256 l 1,4,-1
 832 672 l 1,5,-1
 960 544 l 1,0,-1
EndSplineSet
Validated: 1
LCarets2: 1 0
Ligature2: "+BEEEPwRABDAEMgQ6BDAA 1" o k
Colour: ff00
EndChar

StartChar: refresh
Encoding: 61729 61729 33
Width: 1024
HStem: -64 128<344.035 553.275> 576 128<342.725 551.965>
LayerCount: 2
Back
Fore
SplineSet
448 704 m 0,0,1
 532 704 532 704 606.5 670 c 128,-1,2
 681 636 681 636 735 575 c 1,3,-1
 832 672 l 1,4,-1
 832 384 l 1,5,-1
 544 384 l 1,6,-1
 644 484 l 1,7,8
 578.993 567.652 578.993 567.652 448 576 c 1,9,10
 360 576 360 576 291 522 c 128,-1,11
 222 468 222 468 200 384 c 1,12,-1
 69 384 l 1,13,14
 92 521 92 521 199 612.5 c 128,-1,15
 306 704 306 704 448 704 c 0,0,1
448 -64 m 0,16,17
 364 -64 364 -64 289.5 -30 c 128,-1,18
 215 4 215 4 161 65 c 1,19,-1
 64 -32 l 1,20,-1
 64 256 l 1,21,-1
 352 256 l 1,22,-1
 252 156 l 1,23,24
 317.007 72.3479 317.007 72.3479 448 64 c 1,25,26
 536 64 536 64 605 118 c 128,-1,27
 674 172 674 172 696 256 c 1,28,-1
 827 256 l 1,29,30
 804 119 804 119 697 27.5 c 128,-1,31
 590 -64 590 -64 448 -64 c 0,16,17
EndSplineSet
Validated: 1
LCarets2: 6 0 0 0 0 0 0
Ligature2: "+BEEEPwRABDAEMgQ6BDAA 1" r e f r e s h
Colour: ff00
EndChar

StartChar: removable
Encoding: 61730 61730 34
Width: 1024
LayerCount: 2
Back
Fore
SplineSet
960 64 m 1,0,-1
 768 64 l 1,1,-1
 768 -64 l 1,2,-1
 256 -64 l 1,3,-1
 256 64 l 1,4,-1
 64 64 l 1,5,-1
 64 384 l 1,6,-1
 192 704 l 1,7,-1
 832 704 l 1,8,-1
 960 384 l 1,9,-1
 960 64 l 1,0,-1
128 384 m 1,10,-1
 128 128 l 1,11,-1
 256 128 l 1,12,-1
 288 320 l 1,13,-1
 736 320 l 1,14,-1
 768 128 l 1,15,-1
 896 128 l 1,16,-1
 896 384 l 1,17,-1
 128 384 l 1,10,-1
672 256 m 1,18,-1
 352 256 l 1,19,-1
 336 192 l 1,20,-1
 688 192 l 1,21,-1
 672 256 l 1,18,-1
320 128 m 1,22,-1
 320 0 l 1,23,-1
 384 0 l 1,24,-1
 384 64 l 1,25,-1
 640 64 l 1,26,-1
 640 0 l 1,27,-1
 704 0 l 1,28,-1
 704 128 l 1,29,-1
 320 128 l 1,22,-1
EndSplineSet
Validated: 1
LCarets2: 8 0 0 0 0 0 0 0 0
Ligature2: "+BEEEPwRABDAEMgQ6BDAA 1" r e m o v a b l e
Colour: ff00
EndChar

StartChar: remove
Encoding: 61731 61731 35
Width: 1024
HStem: -64 128<320 384 448 512 576 640> 512 128<448 512> 576 64<128 192 768 832> 704 64<402 560>
VStem: 192 128<64 512> 384 64<64 512> 512 64<64 512> 640 128<64 512>
LayerCount: 2
Back
Fore
SplineSet
384 512 m 1,0,-1
 320 512 l 1,1,-1
 320 64 l 1,2,-1
 384 64 l 1,3,-1
 384 512 l 1,0,-1
512 512 m 1,4,-1
 448 512 l 1,5,-1
 448 64 l 1,6,-1
 512 64 l 1,7,-1
 512 512 l 1,4,-1
640 512 m 1,8,-1
 576 512 l 1,9,-1
 576 64 l 1,10,-1
 640 64 l 1,11,-1
 640 512 l 1,8,-1
384 640 m 1,12,-1
 576 640 l 1,13,-1
 560 704 l 1,14,-1
 402 704 l 1,15,-1
 384 640 l 1,12,-1
832 576 m 1,16,-1
 768 576 l 1,17,-1
 768 64 l 2,18,19
 768 16 768 16 748 -24 c 128,-1,20
 728 -64 728 -64 704 -64 c 2,21,-1
 256 -64 l 2,22,23
 232 -64 232 -64 212 -24 c 128,-1,24
 192 16 192 16 192 64 c 2,25,-1
 192 576 l 1,26,-1
 128 576 l 1,27,-1
 128 640 l 1,28,-1
 320 640 l 1,29,-1
 352 768 l 1,30,-1
 608 768 l 1,31,-1
 640 640 l 1,32,-1
 832 640 l 1,33,-1
 832 576 l 1,16,-1
EndSplineSet
Validated: 1
LCarets2: 5 0 0 0 0 0
Ligature2: "+BEEEPwRABDAEMgQ6BDAA 1" r e m o v e
Colour: ff00
EndChar

StartChar: repack
Encoding: 61732 61732 36
Width: 1024
HStem: 640 128<384 768>
VStem: 768 128<256 640>
LayerCount: 2
Back
Fore
SplineSet
768 640 m 1,0,-1
 384 640 l 1,1,-1
 512 512 l 1,2,-1
 192 192 l 1,3,-1
 320 64 l 1,4,-1
 640 384 l 1,5,-1
 768 256 l 1,6,-1
 768 640 l 1,0,-1
EndSplineSet
Refer: 106 61961 N 1 0 0 1 0 0 2
Validated: 1
LCarets2: 5 0 0 0 0 0
Ligature2: "+BEEEPwRABDAEMgQ6BDAA 1" r e p a c k
Colour: ff00
EndChar

StartChar: restart
Encoding: 61734 61734 38
Width: 1024
HStem: -64 832<308 652>
VStem: 64 256<215.774 488.226>
LayerCount: 2
Back
Fore
SplineSet
320 576 m 1,0,-1
 320 128 l 1,1,-1
 768 352 l 1,2,-1
 320 576 l 1,0,-1
EndSplineSet
Refer: 112 61964 N 1 0 0 1 0 0 2
Validated: 1
LCarets2: 6 0 0 0 0 0 0
Ligature2: "+BEEEPwRABDAEMgQ6BDAA 1" r e s t a r t
Colour: ff00
EndChar

StartChar: run
Encoding: 61735 61735 39
Width: 1024
HStem: -64 272<403.049 556.951> 0 21G<236 276 684 724> 256 192<64 176 784 896> 496 272<403.049 556.951>
VStem: 64 272<275.049 428.951> 384 192<-64 48 657 768> 624 272<275.049 428.951>
CounterMasks: 1 0e
LayerCount: 2
Back
Fore
SplineSet
384 768 m 1,0,-1
 576 768 l 1,1,-1
 576 656 l 1,2,-1
 640 640 l 1,3,-1
 704 704 l 1,4,-1
 832 576 l 1,5,-1
 768 512 l 1,6,-1
 784 448 l 1,7,-1
 896 448 l 1,8,-1
 896 256 l 1,9,-1
 784 256 l 1,10,-1
 768 192 l 1,11,-1
 832 128 l 1,12,-1
 704 0 l 1,13,-1
 640 64 l 1,14,-1
 576 48 l 1,15,-1
 576 -64 l 1,16,-1
 384 -64 l 1,17,-1
 384 48 l 1,18,-1
 320 64 l 1,19,-1
 256 0 l 1,20,-1
 128 128 l 1,21,-1
 192 192 l 1,22,-1
 176 256 l 1,23,-1
 64 256 l 1,24,-1
 64 448 l 1,25,-1
 176 448 l 1,26,-1
 192 512 l 1,27,-1
 128 576 l 1,28,-1
 256 704 l 1,29,-1
 320 640 l 1,30,-1
 384 657 l 1,31,-1
 384 768 l 1,0,-1
  Spiro
    384 768 v
    576 768 v
    576 656 v
    640 640 v
    704 704 v
    832 576 v
    768 512 v
    784 448 v
    896 448 v
    896 256 v
    784 256 v
    768 192 v
    832 128 v
    704 0 v
    640 64 v
    576 48 v
    576 -64 v
    384 -64 v
    384 48 v
    320 64 v
    256 0 v
    128 128 v
    192 192 v
    176 256 v
    64 256 v
    64 448 v
    176 448 v
    192 512 v
    128 576 v
    256 704 v
    320 640 v
    384 657 v
    0 0 z
  EndSpiro
480 496 m 128,-1,33
 420 496 420 496 378 454 c 128,-1,34
 336 412 336 412 336 352 c 128,-1,35
 336 292 336 292 378 250 c 128,-1,36
 420 208 420 208 480 208 c 128,-1,37
 540 208 540 208 582 250 c 128,-1,38
 624 292 624 292 624 352 c 128,-1,39
 624 412 624 412 582 454 c 128,-1,32
 540 496 540 496 480 496 c 128,-1,33
  Spiro
    480 496 o
    424.5 485.5 o
    378 454 o
    346.5 407.5 o
    336 352 o
    346.5 296.5 o
    378 250 o
    424.5 218.5 o
    480 208 o
    535.5 218.5 o
    582 250 o
    613.5 296.5 o
    624 352 o
    613.5 407.5 o
    582 454 o
    535.5 485.5 o
    0 0 z
  EndSpiro
0 1024 m 1,40,-1
 0 1024 l 1,40,-1
  Spiro
    0 1024 v
    0 0 z
  EndSpiro
EndSplineSet
Validated: 1
LCarets2: 2 0 0
Ligature2: "+BEEEPwRABDAEMgQ6BDAA 1" r u n
Colour: ff00
EndChar

StartChar: save
Encoding: 61736 61736 40
Width: 1024
HStem: 192 128<192 448> 320 128<640 832> 512 64<640 832> 640 128<192 448>
VStem: 64 128<320 640> 448 128<320 640> 640 192<128 256 320 448 512 576>
LayerCount: 2
Back
Fore
SplineSet
64 640 m 2,0,1
 64 688 64 688 104 728 c 128,-1,2
 144 768 144 768 192 768 c 2,3,-1
 448 768 l 2,4,5
 496 768 496 768 536 728 c 128,-1,6
 576 688 576 688 576 640 c 2,7,-1
 576 320 l 2,8,9
 576 272 576 272 536 232 c 128,-1,10
 496 192 496 192 448 192 c 2,11,-1
 192 192 l 2,12,13
 144 192 144 192 104 232 c 128,-1,14
 64 272 64 272 64 320 c 2,15,-1
 64 640 l 2,0,1
192 640 m 1,16,-1
 192 320 l 1,17,-1
 448 320 l 1,18,-1
 448 640 l 1,19,-1
 192 640 l 1,16,-1
0 1024 m 1,20,-1
 0 1024 l 1,20,-1
640 576 m 1,21,-1
 832 576 l 1,22,-1
 832 512 l 1,23,-1
 640 512 l 1,24,-1
 640 576 l 1,21,-1
640 448 m 1,25,-1
 832 448 l 1,26,-1
 832 320 l 1,27,-1
 640 320 l 1,28,-1
 640 448 l 1,25,-1
640 256 m 1,29,-1
 832 256 l 1,30,-1
 832 128 l 1,31,-1
 960 128 l 1,32,-1
 736 -96 l 1,33,-1
 512 128 l 1,34,-1
 640 128 l 1,35,-1
 640 256 l 1,29,-1
EndSplineSet
Validated: 1
LCarets2: 3 0 0 0
Ligature2: "+BEEEPwRABDAEMgQ6BDAA 1" s a v e
Colour: ff00
EndChar

StartChar: scan
Encoding: 61737 61737 41
Width: 1024
HStem: -64 224<448 576> 6 66<392.219 448 576 629.562> 256 128<128 202.742 264 352 672 760 821.258 896> 480 224<448 576> 568 66<394.438 448 576 631.781>
VStem: 128 224<256 384> 198 66<384 437.521> 448 128<-64 10.9492 72 160 480 568 629.051 704> 672 224<256 384> 760 66<202.479 256>
LayerCount: 2
Back
Fore
SplineSet
448 704 m 1,0,-1
 576 704 l 1,1,-1
 576 634 l 1,2,3
 669 614 669 614 738 546 c 128,-1,4
 807 478 807 478 826 384 c 1,5,-1
 896 384 l 1,6,-1
 896 256 l 1,7,-1
 826 256 l 1,8,9
 807 162 807 162 739 94 c 0,10,11
 670 26 670 26 576 6 c 1,12,-1
 576 -64 l 1,13,-1
 448 -64 l 1,14,-1
 448 6 l 1,15,16
 355 26 355 26 286 94 c 128,-1,17
 217 162 217 162 198 256 c 1,18,-1
 128 256 l 1,19,-1
 128 384 l 1,20,-1
 198 384 l 1,21,22
 217 478 217 478 285 546 c 0,23,24
 354 614 354 614 448 634 c 1,25,-1
 448 704 l 1,0,-1
352 384 m 1,26,-1
 352 256 l 1,27,-1
 264 256 l 1,28,29
 282 188 282 188 331 139 c 0,30,31
 381 89 381 89 448 72 c 1,32,-1
 448 160 l 1,33,-1
 576 160 l 1,34,-1
 576 72 l 1,35,36
 718 114 718 114 760 256 c 1,37,-1
 672 256 l 1,38,-1
 672 384 l 1,39,-1
 760 384 l 1,40,41
 742 452 742 452 693 501 c 0,42,43
 643 551 643 551 576 568 c 1,44,-1
 576 480 l 1,45,-1
 448 480 l 1,46,-1
 448 568 l 1,47,48
 306 526 306 526 264 384 c 1,49,-1
 352 384 l 1,26,-1
EndSplineSet
Validated: 1
LCarets2: 3 0 0 0
Ligature2: "+BEEEPwRABDAEMgQ6BDAA 1" s c a n
Colour: ff00
EndChar

StartChar: start
Encoding: 61739 61739 43
Width: 1024
HStem: -64 128<367.056 592.944> 640 128<367.056 592.944>
VStem: 64 128<239.056 464.944> 768 128<239.056 464.944>
LayerCount: 2
Back
Fore
SplineSet
384 160 m 1,0,-1
 384 544 l 1,1,-1
 672 352 l 1,2,-1
 384 160 l 1,0,-1
EndSplineSet
Refer: 114 61962 N 1 0 0 1 0 0 2
Validated: 1
LCarets2: 4 0 0 0 0
Ligature2: "+BEEEPwRABDAEMgQ6BDAA 1" s t a r t
Colour: ff00
EndChar

StartChar: stop
Encoding: 61740 61740 44
Width: 1024
Flags: W
HStem: -64 128<367.056 592.944> 640 128<367.056 592.944>
VStem: 64 128<239.056 464.944> 768 128<239.056 464.944>
LayerCount: 2
Back
Fore
SplineSet
384 544 m 1,0,-1
 480 448 l 1,1,-1
 576 544 l 1,2,-1
 672 448 l 1,3,-1
 576 352 l 1,4,-1
 672 256 l 1,5,-1
 576 160 l 1,6,-1
 480 256 l 1,7,-1
 384 160 l 1,8,-1
 288 256 l 1,9,-1
 384 352 l 1,10,-1
 288 448 l 1,11,-1
 384 544 l 1,0,-1
EndSplineSet
Refer: 114 61962 N 1 0 0 1 0 0 2
Validated: 1
LCarets2: 3 0 0 0
Ligature2: "+BEEEPwRABDAEMgQ6BDAA 1" s t o p
Colour: ff00
EndChar

StartChar: sync
Encoding: 61741 61741 45
Width: 1024
HStem: 512 186<387.134 508.673>
VStem: 512 321<395.705 509.875>
LayerCount: 2
Back
Fore
SplineSet
512 320 m 1,0,-1
 512 512 l 1,1,-1
 384 512 l 1,2,-1
 384 320 l 1,3,-1
 256 320 l 1,4,-1
 448 128 l 1,5,-1
 640 320 l 1,6,-1
 512 320 l 1,0,-1
177 573 m 1,7,8
 231 698 231 698 403 698 c 128,-1,9
 575 698 575 698 608 544 c 1,10,11
 640 576 640 576 705 576 c 0,12,13
 833 576 833 576 833 448 c 1,14,15
 830 412 830 412 800 384 c 1,16,17
 960 361 960 361 958.5 197 c 128,-1,18
 957 33 957 33 768 0 c 1,19,-1
 192 0 l 1,20,21
 0 24 0 24 0 198 c 0,22,23
 -1 381 -1 381 128 416 c 1,24,25
 144 522 144 522 177 573 c 1,7,8
EndSplineSet
Validated: 33
LCarets2: 3 0 0 0
Ligature2: "+BEEEPwRABDAEMgQ6BDAA 1" s y n c
Colour: ff00
EndChar

StartChar: tag
Encoding: 61742 61742 46
Width: 1024
VWidth: 1019
LayerCount: 2
Back
Fore
SplineSet
128 768 m 1,0,-1
 480 768 l 1,1,-1
 960 288 l 1,2,-1
 608 -64 l 1,3,-1
 128 416 l 1,4,-1
 128 768 l 1,0,-1
288 672 m 128,-1,6
 262 672 262 672 243 653 c 128,-1,7
 224 634 224 634 224 608 c 128,-1,8
 224 582 224 582 243 563 c 128,-1,9
 262 544 262 544 288 544 c 128,-1,10
 314 544 314 544 333 563 c 128,-1,11
 352 582 352 582 352 608 c 128,-1,12
 352 634 352 634 333 653 c 128,-1,5
 314 672 314 672 288 672 c 128,-1,6
EndSplineSet
Validated: 1
LCarets2: 2 0 0
Ligature2: "+BEEEPwRABDAEMgQ6BDAA 1" t a g
Colour: ff00
EndChar

StartChar: tags
Encoding: 61743 61743 47
Width: 1024
VWidth: 1019
LayerCount: 2
Back
Fore
SplineSet
416 768 m 1,0,-1
 544 768 l 1,1,-1
 1022 286 l 1,2,-1
 672 -64 l 1,3,-1
 608 0 l 1,4,-1
 896 288 l 1,5,-1
 416 768 l 1,0,-1
EndSplineSet
Refer: 46 61742 N 1 0 0 1 -128 0 2
Validated: 1
LCarets2: 3 0 0 0
Ligature2: "+BEEEPwRABDAEMgQ6BDAA 1" t a g s
Colour: ff00
EndChar

StartChar: temperature
Encoding: 61745 61745 49
Width: 1024
HStem: -64 64<398.543 561.457> 640 128<448 512>
VStem: 256 64<77.6341 237.848> 384 64<351.254 640> 512 64<351.252 640> 640 64<77.6341 237.8>
LayerCount: 2
Back
Fore
SplineSet
480 -64 m 128,-1,1
 387 -64 387 -64 321.5 1.5 c 128,-1,2
 256 67 256 67 256 147 c 1,3,4
 263.309 309.877 263.309 309.877 384 362 c 1,5,-1
 384 768 l 1,6,-1
 576 768 l 1,7,-1
 576 362 l 1,8,9
 696.503 309.868 696.503 309.868 704 147 c 1,10,11
 704 67 704 67 638.5 1.5 c 128,-1,0
 573 -64 573 -64 480 -64 c 128,-1,1
512 640 m 1,12,-1
 448 640 l 1,13,-1
 448 317 l 1,14,15
 330.631 288.754 330.631 288.754 320 155.5 c 1,16,17
 320 94 320 94 367 47 c 128,-1,18
 414 0 414 0 480 0 c 128,-1,19
 546 0 546 0 593 47 c 128,-1,20
 640 94 640 94 640 155.5 c 1,21,22
 629.639 288.55 629.639 288.55 512 317 c 1,23,-1
 512 640 l 1,12,-1
EndSplineSet
Validated: 1
LCarets2: 10 0 0 0 0 0 0 0 0 0 0
Ligature2: "+BEEEPwRABDAEMgQ6BDAA 1" t e m p e r a t u r e
Colour: ff00
EndChar

StartChar: terminal
Encoding: 61746 61746 50
Width: 1024
HStem: -64 64<512 768>
VStem: 768 128<0 64>
LayerCount: 2
Back
Fore
SplineSet
512 64 m 1,0,-1
 512 0 l 1,1,-1
 768 0 l 1,2,-1
 768 64 l 1,3,-1
 512 64 l 1,0,-1
480 320 m 1,4,-1
 192 608 l 1,5,-1
 128 544 l 1,6,-1
 352 320 l 1,7,-1
 128 96 l 1,8,-1
 192 32 l 1,9,-1
 480 320 l 1,4,-1
EndSplineSet
Refer: 106 61961 N 1 0 0 1 0 0 2
Validated: 1
LCarets2: 7 0 0 0 0 0 0 0
Ligature2: "+BEEEPwRABDAEMgQ6BDAA 1" t e r m i n a l
Colour: ff00
EndChar

StartChar: unlink
Encoding: 61748 61748 52
Width: 1024
HStem: 208 32<64 256> 464 32<704 896>
VStem: 336 32<-64 128> 592 32<576 768>
LayerCount: 2
Back
Fore
SplineSet
224 736 m 1,0,1
 287.78 784 287.78 784 352 736 c 1,2,-1
 512 576 l 1,3,4
 538.665 551.221 538.665 551.221 544 512 c 1,5,-1
 448 512 l 1,6,-1
 320 640 l 1,7,8
 288.11 664 288.11 664 256 640 c 1,9,-1
 192 576 l 1,10,11
 168 544.11 168 544.11 192 512 c 1,12,-1
 320 384 l 1,13,-1
 320 288 l 1,14,15
 288 288 288 288 256 320 c 2,16,-1
 96 480 l 1,17,18
 48 543.78 48 543.78 96 608 c 1,19,-1
 224 736 l 1,0,1
640 416 m 1,20,21
 672 416 672 416 704 384 c 2,22,-1
 864 224 l 1,23,24
 912 160.22 912 160.22 864 96 c 1,25,-1
 736 -32 l 1,26,27
 672.22 -80 672.22 -80 608 -32 c 1,28,-1
 448 128 l 1,29,30
 421.335 152.779 421.335 152.779 416 192 c 1,31,-1
 512 192 l 1,32,-1
 640 64 l 1,33,34
 671.89 40 671.89 40 704 64 c 1,35,-1
 768 128 l 1,36,37
 792 159.89 792 159.89 768 192 c 1,38,-1
 640 320 l 1,39,-1
 640 416 l 1,20,21
592 768 m 1,40,-1
 624 768 l 1,41,-1
 624 576 l 1,42,-1
 592 576 l 1,43,-1
 592 768 l 1,40,-1
795 699 m 1,44,45
 808.065 688.365 808.065 688.365 819.5 675 c 1,46,-1
 683.4 539 l 1,47,48
 672.169 553.236 672.169 553.236 658 562 c 1,49,-1
 795 699 l 1,44,45
704 496 m 1,50,-1
 896 496 l 1,51,-1
 896 464 l 1,52,-1
 704 464 l 1,53,-1
 704 496 l 1,50,-1
368 -64 m 1,54,-1
 336 -64 l 1,55,-1
 336 128 l 1,56,-1
 368 128 l 1,57,-1
 368 -64 l 1,54,-1
165 5 m 1,58,59
 153 14 153 14 140 29 c 1,60,-1
 277 165 l 1,61,62
 289 150 289 150 302 142 c 1,63,-1
 165 5 l 1,58,59
256 208 m 1,64,-1
 64 208 l 1,65,-1
 64 240 l 1,66,-1
 256 240 l 1,67,-1
 256 208 l 1,64,-1
EndSplineSet
Validated: 33
LCarets2: 5 0 0 0 0 0
Ligature2: "+BEEEPwRABDAEMgQ6BDAA 1" u n l i n k
Colour: ff00
EndChar

StartChar: unlock
Encoding: 61749 61749 53
Width: 1024
HStem: -64 128<288 416> 576 128<615.2 728.613>
VStem: 448 128<384 532.006> 768 128<320 532.006>
LayerCount: 2
Back
Fore
SplineSet
896 320 m 1,0,-1
 768 320 l 1,1,-1
 768 448 l 2,2,3
 768 500 768 500 742.5 538 c 128,-1,4
 717 576 717 576 672 576 c 128,-1,5
 627 576 627 576 601.5 538 c 128,-1,6
 576 500 576 500 576 448 c 2,7,-1
 576 384 l 1,8,-1
 640 384 l 1,9,-1
 640 -64 l 1,10,-1
 64 -64 l 1,11,-1
 64 384 l 1,12,-1
 448 384 l 1,13,-1
 448 448 l 1,14,15
 450 556 450 556 500 624 c 1,16,17
 551 700 551 700 672 704 c 1,18,19
 792 700 792 700 844 624 c 1,20,21
 893 556 893 556 896 448 c 1,22,-1
 896 320 l 1,0,-1
352 192 m 1,23,-1
 288 64 l 1,24,-1
 416 64 l 1,25,-1
 352 192 l 1,23,-1
EndSplineSet
Validated: 1
LCarets2: 5 0 0 0 0 0
Ligature2: "+BEEEPwRABDAEMgQ6BDAA 1" u n l o c k
Colour: ff00
EndChar

StartChar: upgrade
Encoding: 61750 61750 54
Width: 1024
HStem: -64 128<449.325 574.675>
VStem: 128 320<189.775 384> 576 320<189.775 384>
LayerCount: 2
Back
Fore
SplineSet
448 64 m 1,0,-1
 576 64 l 1,1,-1
 576 384 l 1,2,-1
 672 288 l 1,3,-1
 768 384 l 1,4,-1
 512 640 l 1,5,-1
 256 384 l 1,6,-1
 352 288 l 1,7,-1
 448 384 l 1,8,-1
 448 64 l 1,0,-1
EndSplineSet
Refer: 113 61963 S 1 0 0 1 64 0 2
Validated: 1
LCarets2: 6 0 0 0 0 0 0
Ligature2: "+BEEEPwRABDAEMgQ6BDAA 1" u p g r a d e
Colour: ff00
EndChar

StartChar: user
Encoding: 61751 61751 55
Width: 1024
HStem: 384 384<422.039 601.961>
VStem: 320 384<486.039 665.961>
LayerCount: 2
Back
Fore
SplineSet
512 320 m 1,0,1
 646 328 646 328 711 416 c 1,2,3
 796 385 796 385 846 334 c 0,4,5
 896 284 896 284 896 224 c 2,6,-1
 896 -64 l 1,7,-1
 128 -64 l 1,8,-1
 128 224 l 2,9,10
 128 285 128 285 178 335 c 128,-1,11
 228 385 228 385 313 416 c 1,12,13
 378 329 378 329 512 320 c 1,0,1
704 576 m 128,-1,15
 704 497 704 497 647.5 440.5 c 128,-1,16
 591 384 591 384 512 384 c 128,-1,17
 433 384 433 384 376.5 440.5 c 128,-1,18
 320 497 320 497 320 576 c 128,-1,19
 320 655 320 655 376.5 711.5 c 128,-1,20
 433 768 433 768 512 768 c 128,-1,21
 591 768 591 768 647.5 711.5 c 128,-1,14
 704 655 704 655 704 576 c 128,-1,15
EndSplineSet
Validated: 1
LCarets2: 3 0 0 0
Ligature2: "+BEEEPwRABDAEMgQ6BDAA 1" u s e r
Colour: ff00
EndChar

StartChar: view
Encoding: 61752 61752 56
Width: 1024
HStem: 254 2<0 1 1023 1024>
VStem: 256 64<320 409.059>
LayerCount: 2
Back
Fore
SplineSet
0 254 m 1,0,-1
 0 256 l 1,1,-1
 1 256 l 1,2,3
 57 375 57 375 146 446 c 1,4,5
 274 560 274 560 470 573 c 1,6,7
 511 579 511 579 552 573 c 1,8,9
 759 553 759 553 877 445 c 1,10,11
 980 359 980 359 1023 256 c 1,12,-1
 1024 256 l 1,13,-1
 1024 254 l 1,14,-1
 1023 254 l 1,15,16
 941 81 941 81 774 -5 c 0,17,18
 667 -60 667 -60 512 -64 c 1,19,20
 284 -56 284 -56 158 55 c 1,21,22
 47 144 47 144 1 254 c 1,23,-1
 0 254 l 1,0,-1
512 512 m 1,24,25
 416 508 416 508 366 444 c 1,26,27
 320 391 320 391 320 320 c 1,28,-1
 384 320 l 1,29,30
 384 373 384 373 421.5 410.5 c 128,-1,31
 459 448 459 448 512 448 c 1,32,-1
 512 512 l 1,24,25
301 468 m 1,33,34
 144 396 144 396 65 255 c 1,35,36
 121 156 121 156 206 97 c 1,37,38
 377 -33 377 -33 635 14 c 1,39,40
 860 73 860 73 960 255 c 1,41,42
 875 402 875 402 719 468 c 1,43,44
 768 399 768 399 768 306.5 c 128,-1,45
 768 214 768 214 693 139 c 128,-1,46
 618 64 618 64 512 64 c 128,-1,47
 406 64 406 64 331 139 c 128,-1,48
 256 214 256 214 256 309.5 c 128,-1,49
 256 405 256 405 301 468 c 1,33,34
EndSplineSet
Validated: 33
LCarets2: 3 0 0 0
Ligature2: "+BEEEPwRABDAEMgQ6BDAA 1" v i e w
Colour: ff00
EndChar

StartChar: wifi
Encoding: 61753 61753 57
Width: 1024
HStem: 0 21G<492 532> 192 320<421 603.5> 576 128<354.557 669.443>
LayerCount: 2
Back
Fore
SplineSet
512 704 m 128,-1,1
 655 704 655 704 783.5 649.5 c 128,-1,2
 912 595 912 595 1010 498 c 1,3,-1
 919 407 l 1,4,5
 839 487 839 487 734 531.5 c 128,-1,6
 629 576 629 576 512 576 c 128,-1,7
 395 576 395 576 290 531.5 c 128,-1,8
 185 487 185 487 105 407 c 1,9,-1
 14 498 l 1,10,11
 112 595 112 595 240.5 649.5 c 128,-1,0
 369 704 369 704 512 704 c 128,-1,1
512 512 m 128,-1,13
 616 512 616 512 709.5 472.5 c 128,-1,14
 803 433 803 433 874 362 c 1,15,-1
 784 272 l 1,16,17
 688 375 688 375 512 384 c 1,18,19
 336 374 336 374 240 272 c 1,20,-1
 150 362 l 1,21,22
 221 433 221 433 314.5 472.5 c 128,-1,12
 408 512 408 512 512 512 c 128,-1,13
512.5 192 m 128,-1,24
 434 192 434 192 376 136 c 1,25,-1
 286 226 l 1,26,27
 366 312 366 312 512 320 c 1,28,29
 658 312 658 312 738 226 c 1,30,-1
 648 136 l 1,31,23
 591 192 591 192 512.5 192 c 128,-1,24
512 128 m 128,-1,33
 566 128 566 128 602 90 c 1,34,-1
 512 0 l 1,35,-1
 422 90 l 1,36,32
 458 128 458 128 512 128 c 128,-1,33
EndSplineSet
Validated: 1
LCarets2: 3 0 0 0
Ligature2: "+BEEEPwRABDAEMgQ6BDAA 1" w i f i
Colour: ff00
EndChar

StartChar: man
Encoding: 61754 61754 58
Width: 1024
HStem: -64.0186 64.0098<256.014 814.017> 63.9912 128.002<384.006 448.043 640.072 704.028> 575.981 128.039<384.006 416.024 672.01 704.028>
VStem: 192.058 191.948<191.993 575.981> 192.058 63.956<-0.00878906 63.9912> 704.028 127.993<191.993 575.981>
LayerCount: 2
Back
Fore
SplineSet
768.065 -0.0175781 m 2,0,1
 800.003 -0.0175781 800.003 -0.0175781 832.021 31.9824 c 1,2,-1
 832.021 -0.0175781 l 2,3,4
 832.021 -24.0114 832.021 -24.0114 812.023 -44.015 c 128,-1,5
 792.025 -64.0186 792.025 -64.0186 768.065 -64.0186 c 2,6,-1
 256.014 -64.0186 l 2,7,8
 232.006 -64.0186 232.006 -64.0186 212.032 -44.0211 c 128,-1,9
 192.058 -24.0237 192.058 -24.0237 192.058 -0.0136719 c 2,10,-1
 192.058 63.9834 l 1,11,-1
 191.977 639.948 l 2,12,13
 191.977 663.975 191.977 663.975 211.988 683.997 c 128,-1,14
 232 704.02 232 704.02 256.014 704.02 c 2,15,-1
 768.065 704.02 l 2,16,17
 792.025 704.02 792.025 704.02 812.023 683.994 c 128,-1,18
 832.021 663.968 832.021 663.968 832.021 639.965 c 2,19,-1
 832.021 128.01 l 2,20,21
 832.021 103.994 832.021 103.994 812.025 83.9926 c 128,-1,22
 792.029 63.9912 792.029 63.9912 768.065 63.9912 c 2,23,-1
 256.014 63.9912 l 1,24,-1
 256.014 -0.00878906 l 1,25,-1
 768.065 -0.0175781 l 2,0,1
384.006 191.993 m 1,26,-1
 448.043 191.993 l 1,27,-1
 448.043 384.031 l 1,28,-1
 544.017 191.993 l 1,29,-1
 640.072 384.031 l 1,30,-1
 640.072 191.993 l 1,31,-1
 704.028 191.993 l 1,32,-1
 704.028 575.981 l 1,33,-1
 672.01 575.981 l 1,34,-1
 544.017 319.96 l 1,35,-1
 416.024 575.981 l 1,36,-1
 384.006 575.981 l 1,37,-1
 384.006 191.993 l 1,26,-1
EndSplineSet
Validated: 1
LCarets2: 2 0 0
Ligature2: "+BEEEPwRABDAEMgQ6BDAA 1" m a n
Colour: ff00
EndChar

StartChar: off
Encoding: 61755 61755 59
Width: 1024
HStem: 0 64<213.516 425.34> 64 64<576 857.698> 512 64<576 857.698> 576 64<213.516 425.34>
VStem: 0 64<214.073 425.927> 576 64<214.17 425.83> 960 64<229.839 410.161>
LayerCount: 2
Back
Fore
SplineSet
93.5 546.5 m 128,-1,1
 187 640 187 640 306.5 640 c 128,-1,2
 426 640 426 640 512 576 c 1,3,-1
 768 576 l 2,4,5
 874 576 874 576 949 501 c 128,-1,6
 1024 426 1024 426 1024 320 c 128,-1,7
 1024 214 1024 214 949 139 c 128,-1,8
 874 64 874 64 768 64 c 2,9,-1
 512 64 l 1,10,11
 426 0 426 0 306.5 0 c 128,-1,12
 187 0 187 0 93.5 93.5 c 128,-1,13
 0 187 0 187 0 320 c 128,-1,0
 0 453 0 453 93.5 546.5 c 128,-1,1
320 576 m 128,-1,15
 214 576 214 576 139 501 c 128,-1,16
 64 426 64 426 64 320 c 128,-1,17
 64 214 64 214 139 139 c 128,-1,18
 214 64 214 64 320 64 c 128,-1,19
 426 64 426 64 501 139 c 128,-1,20
 576 214 576 214 576 320 c 128,-1,21
 576 426 576 426 501 501 c 128,-1,14
 426 576 426 576 320 576 c 128,-1,15
576 512 m 1,22,23
 640 428 640 428 640 320 c 128,-1,24
 640 212 640 212 576 128 c 1,25,-1
 768 128 l 2,26,27
 848 128 848 128 904 184 c 128,-1,28
 960 240 960 240 960 320 c 128,-1,29
 960 400 960 400 904 456 c 128,-1,30
 848 512 848 512 768 512 c 2,31,-1
 576 512 l 1,22,23
EndSplineSet
Validated: 1
LCarets2: 2 0 0
Ligature2: "+BEEEPwRABDAEMgQ6BDAA 1" o f f
Colour: ff00
EndChar

StartChar: on
Encoding: 61756 61756 60
Width: 1024
HStem: 0 64<598.66 810.484> 576 64<598.66 810.484>
VStem: 0 448<213.334 426.666> 960 64<214.073 425.927>
LayerCount: 2
Back
Fore
SplineSet
512 576 m 1,0,1
 598 640 598 640 717.5 640 c 128,-1,2
 837 640 837 640 930.5 546.5 c 128,-1,3
 1024 453 1024 453 1024 320 c 128,-1,4
 1024 187 1024 187 930.5 93.5 c 128,-1,5
 837 0 837 0 717.5 0 c 128,-1,6
 598 0 598 0 512 64 c 1,7,-1
 256 64 l 2,8,9
 150 64 150 64 75 139 c 128,-1,10
 0 214 0 214 0 320 c 128,-1,11
 0 426 0 426 75 501 c 128,-1,12
 150 576 150 576 256 576 c 2,13,-1
 512 576 l 1,0,1
704 576 m 128,-1,15
 598 576 598 576 523 501 c 128,-1,16
 448 426 448 426 448 320 c 128,-1,17
 448 214 448 214 523 139 c 128,-1,18
 598 64 598 64 704 64 c 128,-1,19
 810 64 810 64 885 139 c 128,-1,20
 960 214 960 214 960 320 c 128,-1,21
 960 426 960 426 885 501 c 128,-1,14
 810 576 810 576 704 576 c 128,-1,15
EndSplineSet
Validated: 1
LCarets2: 1 0
Ligature2: "+BEEEPwRABDAEMgQ6BDAA 1" o n
Colour: ff00
EndChar

StartChar: opt
Encoding: 61757 61757 61
Width: 1024
LayerCount: 2
Back
Fore
SplineSet
221 758 m 1,0,1
 332 788 332 788 418 726 c 1,2,3
 478 684 478 684 504 604.5 c 128,-1,4
 530 525 530 525 487.5 442.5 c 128,-1,5
 445 360 445 360 357 331 c 128,-1,6
 269 302 269 302 182.5 345.5 c 128,-1,7
 96 389 96 389 70 491 c 1,8,9
 68 506 68 506 85.5 525 c 128,-1,10
 103 544 103 544 131 522 c 1,11,-1
 247 463 l 1,12,-1
 328 524 l 1,13,-1
 329 625 l 1,14,-1
 213 684 l 1,15,16
 173 700 173 700 192 741 c 1,17,18
 203 757 203 757 221 758 c 1,0,1
521 439 m 1,19,-1
 864 96 l 1,20,21
 888 64 888 64 864 32 c 1,22,-1
 800 -32 l 1,23,24
 768 -56 768 -56 736 -32 c 1,25,-1
 393 311 l 1,26,27
 481 350 481 350 521 439 c 1,19,-1
736 144 m 128,-1,29
 716 144 716 144 702 130 c 128,-1,30
 688 116 688 116 688 96 c 128,-1,31
 688 76 688 76 702 62 c 128,-1,32
 716 48 716 48 736 48 c 128,-1,33
 756 48 756 48 770 62 c 128,-1,34
 784 76 784 76 784 96 c 128,-1,35
 784 116 784 116 770 130 c 128,-1,28
 756 144 756 144 736 144 c 128,-1,29
EndSplineSet
Validated: 33
LCarets2: 7 0 0 0 0 0 0 0
Ligature2: "+BEEEPwRABDAEMgQ6BDAA 1" t a z p a n e l
Ligature2: "+BEEEPwRABDAEMgQ6BDAA 1" o p t
Colour: ff00
EndChar

StartChar: web
Encoding: 61758 61758 62
Width: 1024
VWidth: 1000
HStem: 224 96<448 512> 672 96<416 542.742>
VStem: 544 352<289.258 384>
LayerCount: 2
Back
Fore
SplineSet
512 224 m 1,0,-1
 448 224 l 1,1,-1
 416 320 l 1,2,-1
 512 320 l 1,3,-1
 544 288 l 1,4,-1
 544 384 l 1,5,-1
 640 448 l 1,6,-1
 640 480 l 1,7,-1
 736 512 l 1,8,-1
 640 576 l 1,9,-1
 576 608 l 1,10,-1
 576 544 l 1,11,-1
 544 512 l 1,12,-1
 512 544 l 1,13,-1
 448 576 l 1,14,-1
 512 640 l 1,15,-1
 544 640 l 1,16,-1
 544 672 l 1,17,-1
 416 672 l 1,18,-1
 320 640 l 1,19,-1
 192 544 l 1,20,-1
 192 480 l 1,21,-1
 256 416 l 1,22,-1
 288 320 l 1,23,-1
 448 192 l 1,24,-1
 542 129 l 1,25,-1
 512 192 l 1,26,-1
 512 224 l 1,0,-1
576 160 m 1,27,-1
 544 0 l 1,28,-1
 704 64 l 1,29,-1
 704 128 l 1,30,-1
 672 160 l 1,31,-1
 576 160 l 1,27,-1
EndSplineSet
Refer: 112 61964 N 1 0 0 1 0 0 2
Validated: 1
LCarets2: 2 0 0
Ligature2: "+BEEEPwRABDAEMgQ6BDAA 1" w e b
Colour: ff00
EndChar

StartChar: a
Encoding: 97 97 63
Width: 1
Flags: W
LayerCount: 2
Back
Fore
SplineSet
0 870 m 1,0,-1
 8 870 l 1,1,-1
 8 -154 l 1,2,-1
 0 -154 l 1,3,-1
 0 870 l 1,0,-1
EndSplineSet
Validated: 1
EndChar

StartChar: slitaz
Encoding: 61759 61759 89
Width: 1024
VWidth: 0
VStem: 320 288<121.57 251.677> 736 64<512 578.95>
LayerCount: 2
Back
Fore
SplineSet
797 48 m 1,0,1
 824 150 824 150 832 272 c 1,2,-1
 696 304 l 1,3,-1
 717 289 l 1,4,5
 763 255 763 255 800 208 c 1,6,-1
 780 166 l 1,7,8
 748 96 748 96 719 63 c 2,9,-1
 660 0 l 2,10,11
 631 -29 631 -29 592 -64 c 1,12,-1
 642 12 l 1,13,14
 706 90 706 90 720 192 c 1,15,16
 678 245 678 245 626 278 c 1,17,-1
 608 288 l 1,18,19
 612 117 612 117 534 28 c 1,20,21
 451 -54 451 -54 360 17 c 1,22,23
 325 50 325 50 320 112 c 1,24,25
 321 201 321 201 344 257 c 1,26,-1
 352 272 l 1,27,28
 266 249 266 249 208 192 c 1,29,30
 197 118 197 118 216 64 c 1,31,32
 220 48 220 48 231 23 c 2,33,-1
 249 -18 l 2,34,35
 256 -33 256 -33 272 -64 c 1,36,37
 211 -3 211 -3 183.5 55 c 128,-1,38
 156 113 156 113 144 208 c 1,39,40
 186 258 186 258 247 290 c 2,41,-1
 272 304 l 1,42,43
 192 304 192 304 128 272 c 1,44,45
 104 214 104 214 103 151.5 c 128,-1,46
 102 89 102 89 96 48 c 1,47,48
 42 164 42 164 80 320 c 1,49,50
 149 349 149 349 236 358 c 2,51,-1
 269 362 l 1,52,53
 172 382 172 382 107 429 c 1,54,55
 149 586 149 586 256 688 c 1,56,57
 243 648 243 648 214 573.5 c 128,-1,58
 185 499 185 499 176 464 c 1,59,60
 235 429 235 429 302 418 c 1,61,-1
 320 416 l 1,62,63
 272 448 272 448 228 498 c 1,64,65
 297 646 297 646 432 736 c 1,66,67
 416 712 416 712 381 668 c 1,68,69
 319 599 319 599 288 512 c 1,70,71
 343 449 343 449 416 416 c 1,72,-1
 416 448 l 2,73,74
 416 471 416 471 451.5 499.5 c 128,-1,75
 487 528 487 528 511.5 528 c 128,-1,76
 536 528 536 528 556 508 c 128,-1,77
 576 488 576 488 576 464 c 2,78,-1
 576 400 l 1,79,-1
 736 512 l 1,80,81
 732 602 732 602 710.5 641.5 c 128,-1,82
 689 681 689 681 656 736 c 1,83,84
 720 682 720 682 760 612.5 c 128,-1,85
 800 543 800 543 800 520.5 c 128,-1,86
 800 498 800 498 768 470 c 128,-1,87
 736 442 736 442 704 421 c 2,88,-1
 672 400 l 1,89,-1
 832 464 l 1,90,91
 847 541 847 541 831 600 c 1,92,-1
 816 688 l 1,93,94
 897 587 897 587 896 432 c 1,95,-1
 720 352 l 1,96,-1
 896 320 l 1,97,98
 878 154 878 154 797 48 c 1,0,1
EndSplineSet
Validated: 33
LCarets2: 5 0 0 0 0 0
Ligature2: "+BEEEPwRABDAEMgQ6BDAA 1" s l i t a z
EndChar

StartChar: zero
Encoding: 48 48 91
Width: 1
Flags: W
LayerCount: 2
Back
Fore
SplineSet
0 870 m 1,0,-1
 8 870 l 1,1,-1
 8 -154 l 1,2,-1
 0 -154 l 1,3,-1
 0 870 l 1,0,-1
EndSplineSet
Validated: 1
EndChar

StartChar: one
Encoding: 49 49 92
Width: 1
Flags: W
LayerCount: 2
Back
Fore
SplineSet
0 870 m 1,0,-1
 8 870 l 1,1,-1
 8 -154 l 1,2,-1
 0 -154 l 1,3,-1
 0 870 l 1,0,-1
EndSplineSet
Validated: 1
EndChar

StartChar: two
Encoding: 50 50 93
Width: 1
Flags: W
LayerCount: 2
Back
Fore
SplineSet
0 870 m 1,0,-1
 8 870 l 1,1,-1
 8 -154 l 1,2,-1
 0 -154 l 1,3,-1
 0 870 l 1,0,-1
EndSplineSet
Validated: 1
EndChar

StartChar: three
Encoding: 51 51 94
Width: 1
Flags: W
LayerCount: 2
Back
Fore
SplineSet
0 870 m 1,0,-1
 8 870 l 1,1,-1
 8 -154 l 1,2,-1
 0 -154 l 1,3,-1
 0 870 l 1,0,-1
EndSplineSet
Validated: 1
EndChar

StartChar: four
Encoding: 52 52 95
Width: 1
Flags: W
LayerCount: 2
Back
Fore
SplineSet
0 870 m 1,0,-1
 8 870 l 1,1,-1
 8 -154 l 1,2,-1
 0 -154 l 1,3,-1
 0 870 l 1,0,-1
EndSplineSet
Validated: 1
EndChar

StartChar: five
Encoding: 53 53 96
Width: 1
Flags: W
LayerCount: 2
Back
Fore
SplineSet
0 870 m 1,0,-1
 8 870 l 1,1,-1
 8 -154 l 1,2,-1
 0 -154 l 1,3,-1
 0 870 l 1,0,-1
EndSplineSet
Validated: 1
EndChar

StartChar: uniF200
Encoding: 61952 61952 97
Width: 1024
VWidth: 0
Flags: W
LayerCount: 2
Back
Fore
SplineSet
128 832 m 2,0,-1
 832 832 l 2,1,2
 880 832 880 832 920 792 c 128,-1,3
 960 752 960 752 960 704 c 2,4,-1
 960 0 l 2,5,6
 960 -48 960 -48 920 -88 c 128,-1,7
 880 -128 880 -128 832 -128 c 2,8,-1
 128 -128 l 2,9,10
 80 -128 80 -128 40 -88 c 128,-1,11
 0 -48 0 -48 0 0 c 2,12,-1
 0 704 l 2,13,14
 0 752 0 752 40 792 c 128,-1,15
 80 832 80 832 128 832 c 2,0,-1
128 768 m 1,16,17
 67 764 67 764 64 704 c 5,18,-1
 64 0 l 1,19,20
 68 -43 68 -43 90 -53.5 c 128,-1,21
 112 -64 112 -64 128 -64 c 2,22,-1
 832 -64 l 1,23,24
 893 -60 893 -60 896 0 c 1,25,-1
 896 704 l 1,26,27
 892 747 892 747 870 757.5 c 128,-1,28
 848 768 848 768 832 768 c 2,29,-1
 128 768 l 1,16,17
EndSplineSet
Validated: 1
LCarets2: 3 0 0 0
EndChar

StartChar: uniF201
Encoding: 61953 61953 98
Width: 1024
VWidth: 0
Flags: W
LayerCount: 2
Back
Fore
SplineSet
128 320 m 1,0,-1
 256 320 l 1,1,-1
 256 0 l 1,2,-1
 128 0 l 1,3,-1
 128 320 l 1,0,-1
EndSplineSet
Validated: 1
LCarets2: 3 0 0 0
EndChar

StartChar: uniF202
Encoding: 61954 61954 99
Width: 1024
VWidth: 0
Flags: W
LayerCount: 2
Back
Fore
SplineSet
320 448 m 1,0,-1
 448 448 l 1,1,-1
 448 0 l 1,2,-1
 320 0 l 1,3,-1
 320 448 l 1,0,-1
EndSplineSet
Validated: 1
LCarets2: 3 0 0 0
EndChar

StartChar: uniF203
Encoding: 61955 61955 100
Width: 1024
VWidth: 0
Flags: W
LayerCount: 2
Back
Fore
SplineSet
512 576 m 1,0,-1
 640 576 l 1,1,-1
 640 0 l 1,2,-1
 512 0 l 1,3,-1
 512 576 l 1,0,-1
EndSplineSet
Validated: 1
LCarets2: 3 0 0 0
EndChar

StartChar: uniF204
Encoding: 61956 61956 101
Width: 1024
VWidth: 0
Flags: W
LayerCount: 2
Back
Fore
SplineSet
704 704 m 1,0,-1
 832 704 l 1,1,-1
 832 0 l 1,2,-1
 704 0 l 1,3,-1
 704 704 l 1,0,-1
EndSplineSet
Validated: 1
LCarets2: 3 0 0 0
EndChar

StartChar: uniF205
Encoding: 61957 61957 102
Width: 1024
VWidth: 0
Flags: W
LayerCount: 2
Back
Fore
SplineSet
128 320 m 1,0,-1
 256 320 l 1,1,-1
 256 0 l 1,2,-1
 128 0 l 1,3,-1
 128 320 l 1,0,-1
160 304 m 1,4,-1
 160 16 l 1,5,-1
 224 16 l 1,6,-1
 224 304 l 1,7,-1
 160 304 l 1,4,-1
EndSplineSet
Validated: 1
LCarets2: 3 0 0 0
EndChar

StartChar: uniF206
Encoding: 61958 61958 103
Width: 1024
VWidth: 0
Flags: W
LayerCount: 2
Back
Fore
SplineSet
320 448 m 1,0,-1
 448 448 l 1,1,-1
 448 0 l 1,2,-1
 320 0 l 1,3,-1
 320 448 l 1,0,-1
352 432 m 1,4,-1
 352 16 l 1,5,-1
 416 16 l 1,6,-1
 416 432 l 1,7,-1
 352 432 l 1,4,-1
EndSplineSet
Validated: 1
LCarets2: 3 0 0 0
EndChar

StartChar: uniF207
Encoding: 61959 61959 104
Width: 1024
VWidth: 0
Flags: W
LayerCount: 2
Back
Fore
SplineSet
512 576 m 1,0,-1
 640 576 l 1,1,-1
 640 0 l 1,2,-1
 512 0 l 1,3,-1
 512 576 l 1,0,-1
544 560 m 1,4,-1
 544 16 l 1,5,-1
 608 16 l 1,6,-1
 608 560 l 1,7,-1
 544 560 l 1,4,-1
EndSplineSet
Validated: 1
LCarets2: 3 0 0 0
EndChar

StartChar: uniF208
Encoding: 61960 61960 105
Width: 1024
VWidth: 0
Flags: W
LayerCount: 2
Back
Fore
SplineSet
704 704 m 1,0,-1
 832 704 l 1,1,-1
 832 0 l 1,2,-1
 704 0 l 1,3,-1
 704 704 l 1,0,-1
736 688 m 1,4,-1
 736 16 l 1,5,-1
 800 16 l 1,6,-1
 800 688 l 1,7,-1
 736 688 l 1,4,-1
EndSplineSet
Validated: 1
LCarets2: 3 0 0 0
EndChar

StartChar: sqr
Encoding: 61961 61961 106
Width: 1024
Flags: W
HStem: -64 832<126.344 833.656>
VStem: 64 832<-1.65625 705.656>
LayerCount: 2
Back
Fore
SplineSet
768 768 m 1,0,1
 880 752 880 752 896 640 c 1,2,-1
 896 64 l 1,3,4
 880 -48 880 -48 768 -64 c 1,5,-1
 192 -64 l 1,6,7
 80 -48 80 -48 64 64 c 1,8,-1
 64 640 l 1,9,10
 80 752 80 752 192 768 c 1,11,-1
 768 768 l 1,0,1
EndSplineSet
Validated: 1
LCarets2: 4 0 0 0 0
EndChar

StartChar: circb
Encoding: 61964 61964 112
Width: 1024
Flags: W
HStem: -64 832<343.774 616.226>
VStem: 64 832<215.774 488.226>
LayerCount: 2
Back
Fore
SplineSet
480 768 m 128,-1,1
 652 768 652 768 774 646 c 128,-1,2
 896 524 896 524 896 352 c 128,-1,3
 896 180 896 180 774 58 c 128,-1,4
 652 -64 652 -64 480 -64 c 128,-1,5
 308 -64 308 -64 186 58 c 128,-1,6
 64 180 64 180 64 352 c 128,-1,7
 64 524 64 524 186 646 c 128,-1,0
 308 768 308 768 480 768 c 128,-1,1
EndSplineSet
Validated: 1
LCarets2: 1 0
EndChar

StartChar: circs
Encoding: 61963 61963 113
Width: 1024
VWidth: 1050
Flags: W
HStem: -64 768<317.775 578.225>
VStem: 64 768<189.775 450.225>
LayerCount: 2
Back
Fore
SplineSet
448 704 m 128,-1,1
 607 704 607 704 719.5 591.5 c 128,-1,2
 832 479 832 479 832 320 c 128,-1,3
 832 161 832 161 719.5 48.5 c 128,-1,4
 607 -64 607 -64 448 -64 c 128,-1,5
 289 -64 289 -64 176.5 48.5 c 128,-1,6
 64 161 64 161 64 320 c 128,-1,7
 64 479 64 479 176.5 591.5 c 128,-1,0
 289 704 289 704 448 704 c 128,-1,1
EndSplineSet
Validated: 1
LCarets2: 2 0 0
EndChar

StartChar: circo
Encoding: 61962 61962 114
Width: 1024
Flags: W
HStem: -64 128<367.056 592.944> 640 128<367.056 592.944>
VStem: 64 128<239.056 464.944> 768 128<239.056 464.944>
LayerCount: 2
Back
Fore
SplineSet
480 768 m 0,0,1
 652 768 652 768 774 646 c 0,2,3
 896 524 896 524 896 352 c 0,4,5
 896 180 896 180 774 58 c 0,6,7
 652 -64 652 -64 480 -64 c 0,8,9
 308 -64 308 -64 186 58 c 0,10,11
 64 180 64 180 64 352 c 0,12,13
 64 524 64 524 186 646 c 0,14,15
 308 768 308 768 480 768 c 0,0,1
480 640 m 0,16,17
 361 640 361 640 276.5 555.5 c 0,18,19
 192 471 192 471 192 352 c 0,20,21
 192 233 192 233 276.5 148.5 c 0,22,23
 361 64 361 64 480 64 c 0,24,25
 599 64 599 64 683.5 148.5 c 0,26,27
 768 233 768 233 768 352 c 0,28,29
 768 471 768 471 683.5 555.5 c 0,30,31
 599 640 599 640 480 640 c 0,16,17
EndSplineSet
Refer: 90 0 N 1 0 0 1 0 0 2
Validated: 1
LCarets2: 4 0 0 0 0
EndChar

StartChar: online
Encoding: 61765 61765 115
Width: 1024
VWidth: 0
LayerCount: 2
Back
Fore
SplineSet
784 688 m 1,0,-1
 752 688 l 1,1,-1
 640 576 l 1,2,-1
 544 576 l 1,3,-1
 416 448 l 1,4,-1
 576 288 l 1,5,-1
 704 416 l 1,6,-1
 704 512 l 1,7,-1
 816 624 l 1,8,-1
 816 656 l 1,9,-1
 784 688 l 1,0,-1
384 416 m 1,10,-1
 256 288 l 1,11,-1
 256 192 l 1,12,-1
 144 80 l 1,13,-1
 144 48 l 1,14,-1
 176 16 l 1,15,-1
 208 16 l 1,16,-1
 320 128 l 1,17,-1
 416 128 l 1,18,-1
 544 256 l 1,19,-1
 384 416 l 1,10,-1
EndSplineSet
Refer: 116 61965 N 1 0 0 1 0 0 2
Validated: 1
Ligature2: "+BEEEPwRABDAEMgQ6BDAA 1" o n l i n e
EndChar

StartChar: uniF20D
Encoding: 61965 61965 116
Width: 1024
VWidth: 0
Flags: W
LayerCount: 2
Back
Fore
SplineSet
128 832 m 2,0,-1
 832 832 l 2,1,2
 880 832 880 832 920 792 c 128,-1,3
 960 752 960 752 960 704 c 2,4,-1
 960 0 l 2,5,6
 960 -48 960 -48 920 -88 c 128,-1,7
 880 -128 880 -128 832 -128 c 2,8,-1
 128 -128 l 2,9,10
 80 -128 80 -128 40 -88 c 128,-1,11
 0 -48 0 -48 0 0 c 2,12,-1
 0 704 l 2,13,14
 0 752 0 752 40 792 c 128,-1,15
 80 832 80 832 128 832 c 2,0,-1
EndSplineSet
Validated: 1
LCarets2: 3 0 0 0
EndChar

StartChar: offline
Encoding: 61766 61766 117
Width: 1024
VWidth: 0
LayerCount: 2
Back
Fore
SplineSet
784 688 m 1,0,-1
 752 688 l 1,1,-1
 640 576 l 1,2,-1
 544 576 l 1,3,-1
 480 512 l 1,4,-1
 640 352 l 1,5,-1
 704 416 l 1,6,-1
 704 512 l 1,7,-1
 816 624 l 1,8,-1
 816 656 l 1,9,-1
 784 688 l 1,0,-1
320 352 m 1,10,-1
 256 288 l 1,11,-1
 256 192 l 1,12,-1
 144 80 l 1,13,-1
 144 48 l 1,14,-1
 176 16 l 1,15,-1
 208 16 l 1,16,-1
 320 128 l 1,17,-1
 416 128 l 1,18,-1
 480 192 l 1,19,-1
 320 352 l 1,10,-1
EndSplineSet
Refer: 116 61965 N 1 0 0 1 0 0 2
Validated: 1
Ligature2: "+BEEEPwRABDAEMgQ6BDAA 1" o f f l i n e
EndChar

StartChar: sechi
Encoding: 61767 61767 118
Width: 1024
VWidth: 0
HStem: 576 64<256 332.851>
VStem: 192 64<406.408 576> 768 64<407.063 576>
LayerCount: 2
Back
Fore
SplineSet
320 528 m 5,0,1
 341 528 341 528 389 548 c 4,2,3
 436 568 436 568 474 588 c 6,4,-1
 512 608 l 5,5,6
 656 528 656 528 704 528 c 5,7,8
 698 364 698 364 643 263 c 4,9,10
 588 163 588 163 532 100 c 5,11,-1
 512 80 l 5,12,13
 439 152 439 152 384 258 c 4,14,15
 328 365 328 365 320 528 c 5,0,1
EndSplineSet
Refer: 120 61769 S 1 0 0 1 0 0 2
Validated: 1
Ligature2: "+BEEEPwRABDAEMgQ6BDAA 1" v p n
Ligature2: "+BEEEPwRABDAEMgQ6BDAA 1" s e c h i
EndChar

StartChar: secmi
Encoding: 61768 61768 119
Width: 1024
VWidth: 0
LayerCount: 2
Back
Fore
SplineSet
320 528 m 1,0,1
 341 528 341 528 388.5 548 c 0,2,3
 436 568 436 568 474 588 c 2,4,-1
 512 608 l 1,5,6
 656 528 656 528 704 528 c 1,7,8
 698 364 698 364 640 257 c 0,9,10
 583 150 583 150 512 80 c 1,11,12
 439 152 439 152 383.5 258.5 c 0,13,14
 328 365 328 365 320 528 c 1,0,1
512 574 m 1,15,16
 434 530 434 530 352 503 c 1,17,18
 363 364 363 364 409 275 c 0,19,20
 455 186 455 186 512 123 c 1,21,22
 565 182 565 182 614 273 c 0,23,24
 663 364 663 364 673 502 c 1,25,26
 619 515 619 515 512 574 c 1,15,16
512 123 m 1025
EndSplineSet
Refer: 120 61769 N 1 0 0 1 0 0 2
Validated: 1
LCarets2: 4 0 0 0 0
Ligature2: "+BEEEPwRABDAEMgQ6BDAA 1" s e c m i
EndChar

StartChar: seclo
Encoding: 61769 61769 120
Width: 1024
VWidth: 0
HStem: 576 64<256 332.851>
VStem: 192 64<406.408 576> 768 64<407.063 576>
LayerCount: 2
Back
Fore
SplineSet
512 768 m 1,0,1
 564 716 564 716 652.5 678 c 128,-1,2
 741 640 741 640 832 640 c 1,3,4
 832 266.752 832 266.752 669.5 71.5 c 0,5,6
 605 -6 605 -6 512 -64 c 1,7,8
 326.232 51.855 326.232 51.855 259.116 231.804 c 128,-1,9
 192 411.754 192 411.754 192 640 c 1,10,11
 283 640 283 640 371.5 678 c 128,-1,12
 460 716 460 716 512 768 c 1,0,1
512 688 m 1,13,14
 476 652 476 652 390 614 c 128,-1,15
 304 576 304 576 256 576 c 1,16,17
 256 415 256 415 317 266 c 128,-1,18
 378 117 378 117 512 16 c 1,19,20
 646 117 646 117 707 266 c 128,-1,21
 768 415 768 415 768 576 c 1,22,23
 720 576 720 576 634 614 c 128,-1,24
 548 652 548 652 512 688 c 1,13,14
EndSplineSet
Validated: 1
LCarets2: 4 0 0 0 0
Ligature2: "+BEEEPwRABDAEMgQ6BDAA 1" s e c l o
EndChar

StartChar: pkg
Encoding: 61770 61770 121
Width: 1024
VWidth: 0
LayerCount: 2
Back
Fore
SplineSet
640 704 m 1,0,-1
 640 640 l 1,1,-1
 704 640 l 1,2,-1
 704 704 l 1,3,-1
 640 704 l 1,0,-1
512 704 m 1,4,-1
 512 640 l 1,5,-1
 576 640 l 1,6,-1
 576 704 l 1,7,-1
 512 704 l 1,4,-1
768 448 m 1,8,-1
 768 384 l 1,9,-1
 832 384 l 1,10,-1
 832 448 l 1,11,-1
 768 448 l 1,8,-1
640 576 m 1,12,-1
 640 512 l 1,13,-1
 704 512 l 1,14,-1
 704 576 l 1,15,-1
 640 576 l 1,12,-1
768 704 m 1,16,-1
 768 640 l 1,17,-1
 832 640 l 1,18,-1
 832 704 l 1,19,-1
 768 704 l 1,16,-1
768 576 m 1,20,-1
 768 512 l 1,21,-1
 832 512 l 1,22,-1
 832 576 l 1,23,-1
 768 576 l 1,20,-1
EndSplineSet
Refer: 116 61965 N 1 0 0 1 0 0 2
Validated: 1
LCarets2: 2 0 0
Ligature2: "+BEEEPwRABDAEMgQ6BDAA 1" p k g
EndChar

StartChar: pkgi
Encoding: 61771 61771 122
Width: 1024
VWidth: 0
Flags: W
LayerCount: 2
Back
Fore
SplineSet
448 640 m 1,0,-1
 192 512 l 1,1,-1
 192 192 l 1,2,-1
 448 64 l 1,3,-1
 512 64 l 1,4,-1
 768 192 l 1,5,-1
 768 512 l 1,6,-1
 512 640 l 1,7,-1
 448 640 l 1,0,-1
448 576 m 1,8,-1
 512 576 l 1,9,-1
 704 480 l 1,10,-1
 512 384 l 1,11,-1
 448 384.9 l 1,12,-1
 256 480 l 1,13,-1
 448 576 l 1,8,-1
704 416 m 1,14,-1
 704 224 l 1,15,-1
 512 128 l 1,16,-1
 512 320 l 1,17,-1
 704 416 l 1,14,-1
EndSplineSet
Refer: 116 61965 N 1 0 0 1 0 0 2
Validated: 1
LCarets2: 3 0 0 0
Ligature2: "+BEEEPwRABDAEMgQ6BDAA 1" p k g i
EndChar

StartChar: pkgib
Encoding: 61772 61772 123
Width: 1024
VWidth: 0
LayerCount: 2
Back
Fore
SplineSet
480 704 m 0,0,1
 387 704 387 704 321.5 645 c 0,2,3
 256 586 256 586 256 512 c 2,4,-1
 256 384 l 1,5,-1
 192 384 l 1,6,-1
 192 64 l 1,7,-1
 768 64 l 1,8,-1
 768 384 l 1,9,-1
 704 384 l 1,10,-1
 704 512 l 1,11,12
 710 585 710 585 642.5 644.5 c 0,13,14
 575 704 575 704 480 704 c 0,0,1
480 640 m 0,15,16
 540 640 540 640 590 600 c 0,17,18
 640 560 640 560 640 512 c 2,19,-1
 640 384 l 1,20,-1
 320 384 l 1,21,-1
 320 512 l 1,22,23
 324 561 324 561 372.5 600.5 c 0,24,25
 421 640 421 640 480 640 c 0,15,16
480 288 m 1,26,-1
 512 224 l 1,27,-1
 512 128 l 1,28,-1
 448 128 l 1,29,-1
 448 224 l 1,30,-1
 480 288 l 1,26,-1
EndSplineSet
Refer: 116 61965 N 1 0 0 1 0 0 2
Validated: 33
LCarets2: 4 0 0 0 0
Ligature2: "+BEEEPwRABDAEMgQ6BDAA 1" p k g i b
EndChar

StartChar: toggle
Encoding: 61773 61773 124
Width: 1024
VWidth: 0
LayerCount: 2
Back
Fore
SplineSet
64 0 m 1,0,-1
 832 768 l 1,1,-1
 896 704 l 1,2,-1
 128 -64 l 1,3,-1
 64 0 l 1,0,-1
512 896 m 1,4,-1
 576 832 l 1,5,-1
 448 704 l 1,6,-1
 448 384 l 1,7,-1
 0 384 l 1,8,-1
 0 832 l 1,9,-1
 448 832 l 1,10,-1
 512 896 l 1,4,-1
64 768 m 1,11,-1
 64 704 l 1,12,-1
 192 576 l 1,13,-1
 384 768 l 1,14,-1
 64 768 l 1,11,-1
384 640 m 1,15,-1
 192 448 l 1,16,-1
 64 576 l 1,17,-1
 64 448 l 1,18,-1
 192 448 l 1,19,-1
 384 448 l 1,20,-1
 384 640 l 1,15,-1
512 320 m 1,21,-1
 960 320 l 1,22,-1
 960 -128 l 1,23,-1
 512 -128 l 1,24,-1
 512 320 l 1,21,-1
576 256 m 1,25,-1
 576 -64 l 1,26,-1
 896 -64 l 1,27,-1
 896 256 l 1,28,-1
 576 256 l 1,25,-1
EndSplineSet
Validated: 5
LCarets2: 5 0 0 0 0 0
Ligature2: "+BEEEPwRABDAEMgQ6BDAA 1" t o g g l e
EndChar

StartChar: chlock
Encoding: 61774 61774 125
Width: 1024
VWidth: 0
HStem: -128 256<512 704 768 960> -128 64<704 768> 256 64<651.612 808.873> 384 256<0 192 256 448> 384 64<192 256> 768 64<395.612 552.873>
VStem: 320 64<640 752.871> 576 64<128 240.871 640 761.844> 832 64<128 249.844>
CounterMasks: 1 0380
LayerCount: 2
Back
Fore
SplineSet
768 255.5 m 2,0,-1
 704 255.5 l 2,1,2
 640 255.5 640 255.5 640 128 c 1,3,-1
 576 128 l 1,4,5
 576.477 318.515 576.477 318.515 703.5 319.5 c 2,6,-1
 768 320 l 1,7,8
 896 320 896 320 896 128 c 1,9,-1
 832 128 l 1,10,11
 832 255.5 832 255.5 768 255.5 c 2,0,-1
64 0 m 1,12,-1
 832 768 l 1,13,-1
 896 704 l 1,14,-1
 128 -64 l 1,15,-1
 64 0 l 1,12,-1
0 640 m 1,16,-1
 448 640 l 1,17,-1
 448 384 l 1,18,-1
 0 384 l 1,19,-1
 0 640 l 1,16,-1
224 544 m 1,20,-1
 192 480 l 1,21,-1
 192 448 l 1,22,-1
 256 448 l 1,23,-1
 256 480 l 1,24,-1
 224 544 l 1,20,-1
512 767.5 m 2,25,-1
 448 767.5 l 2,26,27
 384 767.5 384 767.5 384 640 c 1,28,-1
 320 640 l 1,29,30
 320 830.955 320 830.955 447.5 831.5 c 2,31,-1
 512 832 l 1,32,33
 640 832 640 832 640 640 c 1,34,-1
 576 640 l 1,35,36
 576 767.5 576 767.5 512 767.5 c 2,25,-1
512 128 m 1,37,-1
 960 128 l 1,38,-1
 960 -128 l 1,39,-1
 512 -128 l 1,40,-1
 512 128 l 1,37,-1
736 32 m 1,41,-1
 704 -32 l 1,42,-1
 704 -64 l 1,43,-1
 768 -64 l 1,44,-1
 768 -32 l 1,45,-1
 736 32 l 1,41,-1
EndSplineSet
Validated: 5
Ligature2: "+BEEEPwRABDAEMgQ6BDAA 1" c h l o c k
EndChar

StartChar: calendar
Encoding: 61775 61775 126
Width: 1024
VWidth: 0
LayerCount: 2
Back
Fore
SplineSet
128 0 m 1,0,-1
 256 0 l 1,1,-1
 256 128 l 1,2,-1
 128 128 l 1,3,-1
 128 0 l 1,0,-1
320 0 m 1,4,-1
 448 0 l 1,5,-1
 448 128 l 1,6,-1
 320 128 l 1,7,-1
 320 0 l 1,4,-1
128 192 m 1,8,-1
 256 192 l 1,9,-1
 256 320 l 1,10,-1
 128 320 l 1,11,-1
 128 192 l 1,8,-1
320 192 m 1,12,-1
 448 192 l 1,13,-1
 448 320 l 1,14,-1
 320 320 l 1,15,-1
 320 192 l 1,12,-1
128 384 m 1,16,-1
 256 384 l 1,17,-1
 256 512 l 1,18,-1
 128 512 l 1,19,-1
 128 384 l 1,16,-1
512 0 m 1,20,-1
 640 0 l 1,21,-1
 640 128 l 1,22,-1
 512 128 l 1,23,-1
 512 0 l 1,20,-1
320 384 m 1,24,-1
 448 384 l 1,25,-1
 448 512 l 1,26,-1
 320 512 l 1,27,-1
 320 384 l 1,24,-1
704 0 m 1,28,-1
 832 0 l 1,29,-1
 832 128 l 1,30,-1
 704 128 l 1,31,-1
 704 0 l 1,28,-1
512 192 m 1,32,-1
 640 192 l 1,33,-1
 640 320 l 1,34,-1
 512 320 l 1,35,-1
 512 192 l 1,32,-1
320 576 m 1,36,-1
 320 768 l 1,37,-1
 256 768 l 1,38,-1
 256 576 l 1,39,-1
 320 576 l 1,36,-1
704 192 m 1,40,-1
 832 192 l 1,41,-1
 832 320 l 1,42,-1
 704 320 l 1,43,-1
 704 192 l 1,40,-1
512 384 m 1,44,-1
 640 384 l 1,45,-1
 640 512 l 1,46,-1
 512 512 l 1,47,-1
 512 384 l 1,44,-1
704 384 m 1,48,-1
 832 384 l 1,49,-1
 832 512 l 1,50,-1
 704 512 l 1,51,-1
 704 384 l 1,48,-1
704 576 m 1,52,-1
 704 768 l 1,53,-1
 640 768 l 1,54,-1
 640 576 l 1,55,-1
 704 576 l 1,52,-1
896 704 m 1,56,-1
 896 -64 l 1,57,-1
 64 -64 l 1,58,-1
 64 704 l 1,59,-1
 192 704 l 1,60,-1
 192 832 l 1,61,-1
 384 832 l 1,62,-1
 384 704 l 1,63,-1
 576 704 l 1,64,-1
 576 832 l 1,65,-1
 768 832 l 1,66,-1
 768 704 l 1,67,-1
 896 704 l 1,56,-1
EndSplineSet
Validated: 1
Ligature2: "+BEEEPwRABDAEMgQ6BDAA 1" c a l e n d a r
EndChar

StartChar: modem
Encoding: 61776 61776 127
Width: 1024
VWidth: 0
LayerCount: 2
Back
Fore
SplineSet
731.099609375 177.799804688 m 1,0,1
 684.085953146 231.472070201 684.085953146 231.472070201 589.799804688 278.099609375 c 1,2,3
 571.088684096 272.69103389 571.088684096 272.69103389 545.972159765 240.250411818 c 0,4,5
 520.855635435 207.809789746 520.855635435 207.809789746 502 203.799804688 c 1,6,7
 384.064976999 257.384404531 384.064976999 257.384404531 314.188360841 364.622242407 c 0,8,9
 295.77034064 393.245112743 295.77034064 393.245112743 283.599609375 421.799804688 c 1,10,11
 286.111771458 440.107570466 286.111771458 440.107570466 320.399902371 464.939509897 c 0,12,13
 354.688033284 489.771449328 354.688033284 489.771449328 356.906858015 503.487126596 c 0,14,15
 359.125682745 517.202803863 359.125682745 517.202803863 353.299804688 529.200195312 c 0,16,17
 340.745407745 544.597903223 340.745407745 544.597903223 317.384686197 588.038161946 c 0,18,19
 294.02396465 631.478420668 294.02396465 631.478420668 283.299804688 646.099609375 c 1,20,21
 240.203334151 662.124587605 240.203334151 662.124587605 197.717906531 628.085531632 c 0,22,23
 177.264174367 610.916011188 177.264174367 610.916011188 168.400390625 589.400390625 c 0,24,25
 137.986356684 533.25206719 137.986356684 533.25206719 151.700195312 479.799804688 c 0,26,27
 195.644769797 315.95266266 195.644769797 315.95266266 316.22445963 199.456345196 c 0,28,29
 395.752368007 122.621610638 395.752368007 122.621610638 488.099609375 91.7099609375 c 1,30,31
 566.754166212 60.5957190199 566.754166212 60.5957190199 669.700195312 87.0595703125 c 1,32,33
 725.869398722 110.22293409 725.869398722 110.22293409 731.099609375 177.799804688 c 1,0,1
EndSplineSet
Refer: 116 61965 N 1 0 0 1 0 0 2
Validated: 33
LCarets2: 4 0 0 0 0
Ligature2: "+BEEEPwRABDAEMgQ6BDAA 1" m o d e m
EndChar

StartChar: cpu
Encoding: 61778 61778 129
Width: 1024
VWidth: 0
LayerCount: 2
Back
Fore
SplineSet
192 832 m 1,0,-1
 256 832 l 1,1,-1
 256 704 l 1,2,-1
 320 704 l 1,3,-1
 320 832 l 1,4,-1
 384 832 l 1,5,-1
 384 704 l 1,6,-1
 448 704 l 1,7,-1
 448 832 l 1,8,-1
 512 832 l 1,9,-1
 512 704 l 1,10,-1
 576 704 l 1,11,-1
 576 832 l 1,12,-1
 640 832 l 1,13,-1
 640 704 l 1,14,-1
 704 704 l 1,15,-1
 704 832 l 1,16,-1
 768 832 l 1,17,-1
 769.099609375 703.200195312 l 1,18,-1
 832 704 l 1,19,-1
 831.900390625 640.700195312 l 1,20,-1
 960 640 l 1,21,-1
 960 576 l 1,22,-1
 832 576 l 1,23,-1
 832 512 l 1,24,-1
 960 512 l 1,25,-1
 960 448 l 1,26,-1
 832 448 l 1,27,-1
 832 384 l 1,28,-1
 960 384 l 1,29,-1
 960 320 l 1,30,-1
 832 320 l 1,31,-1
 832 256 l 1,32,-1
 960 256 l 1,33,-1
 960 192 l 1,34,-1
 832 192 l 1,35,-1
 832 128 l 1,36,-1
 960 128 l 1,37,-1
 960 64 l 1,38,-1
 832 63.5 l 1,39,-1
 832 0 l 1,40,-1
 768.599609375 0 l 1,41,-1
 768 -128 l 1,42,-1
 704 -128 l 1,43,-1
 704 0 l 1,44,-1
 640 0 l 1,45,-1
 640 -128 l 1,46,-1
 576 -128 l 1,47,-1
 576 0 l 1,48,-1
 512 0 l 1,49,-1
 512 -128 l 1,50,-1
 448 -128 l 1,51,-1
 448 0 l 1,52,-1
 384 0 l 1,53,-1
 384 -128 l 1,54,-1
 320 -128 l 1,55,-1
 320 0 l 1,56,-1
 256 0 l 1,57,-1
 256 -128 l 1,58,-1
 192 -128 l 1,59,-1
 191.700195312 0 l 1,60,-1
 128 0 l 1,61,-1
 127.700195312 64.2001953125 l 1,62,-1
 0 64 l 1,63,-1
 0 128 l 1,64,-1
 128 128 l 1,65,-1
 128 192 l 1,66,-1
 0 192 l 1,67,-1
 0 256 l 1,68,-1
 128 256 l 1,69,-1
 128 320 l 1,70,-1
 0 320 l 1,71,-1
 0 384 l 1,72,-1
 128 384 l 1,73,-1
 128 448 l 1,74,-1
 0 448 l 1,75,-1
 0 512 l 1,76,-1
 128 512 l 1,77,-1
 128 576 l 1,78,-1
 0 576 l 1,79,-1
 0 640 l 1,80,-1
 128 639.599609375 l 1,81,-1
 128 704 l 1,82,-1
 191.900390625 704 l 1,83,-1
 192 832 l 1,0,-1
192 640 m 1,84,-1
 192 64 l 1,85,-1
 768 64 l 1,86,-1
 768 640 l 1,87,-1
 192 640 l 1,84,-1
256 576 m 1,88,-1
 704 576 l 1,89,-1
 704 128 l 1,90,-1
 256 128 l 1,91,-1
 256 576 l 1,88,-1
320 512 m 1,92,-1
 320 448 l 1,93,-1
 384 448 l 1,94,-1
 384 512 l 1,95,-1
 320 512 l 1,92,-1
EndSplineSet
Validated: 1
Ligature2: "+BEEEPwRABDAEMgQ6BDAA 1" c p u
EndChar

StartChar: display
Encoding: 61779 61779 130
Width: 1024
VWidth: 0
LayerCount: 2
Back
Fore
SplineSet
64 768 m 2,0,-1
 896 768 l 2,1,2
 935.271441408 768 935.271441408 768 953.027025223 733.203809738 c 0,3,4
 959.755859921 718.953920022 959.755859921 718.953920022 960 704 c 2,5,-1
 960 128 l 2,6,7
 960 88.7285585921 960 88.7285585921 925.203809738 70.9729747772 c 0,8,9
 910.953920022 64.2441400786 910.953920022 64.2441400786 896 64 c 2,10,-1
 576 64 l 1,11,12
 625.9375 14.0625 625.9375 14.0625 642.72903153 7.03258377499 c 0,13,14
 659.520563061 0.00266754998029 659.520563061 0.00266754998029 704 0 c 1,15,-1
 704 -64 l 1,16,-1
 256 -64 l 1,17,-1
 256 0 l 1,18,19
 305.9375 0 305.9375 0 322.72903153 9.76161530529 c 0,20,21
 339.520563061 19.5232306106 339.520563061 19.5232306106 384 64 c 1,22,-1
 64 64 l 2,23,24
 24.7515833647 64 24.7515833647 64 6.98041841015 98.7961902618 c 0,25,26
 0.244439609677 113.048497662 0.244439609677 113.048497662 0 128 c 2,27,-1
 0 704 l 2,28,29
 0 743.260587795 0 743.260587795 34.8138199188 761.027025223 c 0,30,31
 49.0614486756 767.755697975 49.0614486756 767.755697975 64 768 c 2,0,-1
64 704 m 1,32,-1
 64 192 l 1,33,-1
 896 192 l 1,34,-1
 896 704 l 1,35,-1
 64 704 l 1,32,-1
EndSplineSet
Refer: 89 61759 S 0.625 0 0 0.625 180.059 234.209 2
Validated: 1
Ligature2: "+BEEEPwRABDAEMgQ6BDAA 1" d i s p l a y
EndChar

StartChar: msg
Encoding: 61780 61780 131
Width: 995
VWidth: 0
Flags: W
LayerCount: 2
Back
Fore
SplineSet
436 964 m 4,0,1
 448 992 448 992 500 992 c 4,2,3
 544 992 544 992 562 952 c 4,4,5
 566 942 566 942 575 907 c 132,-1,6
 584 872 584 872 610 851 c 4,7,8
 665 808 665 808 735 846 c 4,9,10
 778 869 778 869 799 871 c 132,-1,11
 820 873 820 873 851 842 c 132,-1,12
 882 811 882 811 862 768 c 4,13,14
 859 761 859 761 841 728.5 c 132,-1,15
 823 696 823 696 828 663 c 4,16,17
 838 597 838 597 908 576 c 4,18,19
 956 561 956 561 964 556 c 4,20,21
 992 538 992 538 992 492.5 c 132,-1,22
 992 447 992 447 951 431 c 4,23,24
 942 428 942 428 906.5 417.5 c 132,-1,25
 871 407 871 407 851 382 c 4,26,27
 808 327 808 327 846 258 c 4,28,29
 869 215 869 215 871 193.5 c 132,-1,30
 873 172 873 172 842 141 c 132,-1,31
 811 110 811 110 768 130 c 4,32,33
 761 133 761 133 728.5 151 c 132,-1,34
 696 169 696 169 663 164 c 4,35,36
 597 154 597 154 576 84 c 4,37,38
 561 36 561 36 556 28 c 4,39,40
 538 0 538 0 492.5 0 c 132,-1,41
 447 0 447 0 431 41 c 4,42,43
 428 50 428 50 417.5 85.5 c 132,-1,44
 407 121 407 121 382 141 c 4,45,46
 327 184 327 184 258 146 c 4,47,48
 215 123 215 123 193.5 121 c 132,-1,49
 172 119 172 119 141 150 c 132,-1,50
 110 181 110 181 130 224 c 4,51,52
 133 231 133 231 151 263.5 c 132,-1,53
 169 296 169 296 164 329 c 4,54,55
 154 395 154 395 84 416 c 4,56,57
 36 431 36 431 28 436 c 4,58,59
 0 454 0 454 0 499.5 c 132,-1,60
 0 545 0 545 41 561 c 4,61,62
 50 565 50 565 85.5 575 c 132,-1,63
 121 585 121 585 141 610 c 4,64,65
 184 665 184 665 146 734 c 4,66,67
 123 777 123 777 121 798.5 c 132,-1,68
 119 820 119 820 150 851 c 132,-1,69
 181 882 181 882 224 862 c 4,70,71
 231 859 231 859 263.5 841 c 132,-1,72
 296 823 296 823 329 828 c 4,73,74
 395 838 395 838 416 908 c 4,75,76
 429 948 429 948 436 964 c 4,0,1
528 945 m 132,-1,78
 524 951 524 951 518 955 c 132,-1,79
 512 959 512 959 487 959 c 132,-1,80
 462 959 462 959 457 933 c 4,81,82
 438 869 438 869 428 855 c 4,83,84
 380 788 380 788 302 796 c 4,85,86
 271 800 271 800 242 816.5 c 132,-1,87
 213 833 213 833 199 836.5 c 132,-1,88
 185 840 185 840 168 824 c 4,89,90
 154 808 154 808 155 796.5 c 132,-1,91
 156 785 156 785 166.5 765 c 132,-1,92
 177 745 177 745 179 741 c 4,93,94
 205 690 205 690 194 645 c 4,95,96
 175 563 175 563 77 539 c 4,97,98
 50 532 50 532 44.5 527 c 132,-1,99
 39 522 39 522 38 520 c 4,100,101
 25 493 25 493 39 469 c 4,102,103
 47 460 47 460 66 455 c 4,104,105
 144 434 144 434 177 389 c 132,-1,106
 210 344 210 344 192 279 c 4,107,108
 186 258 186 258 171.5 233 c 132,-1,109
 157 208 157 208 156 201 c 132,-1,110
 155 194 155 194 155 189 c 4,111,112
 164 159 164 159 195 154 c 4,113,114
 206 155 206 155 223.5 165 c 132,-1,115
 241 175 241 175 245 176 c 4,116,117
 295 204 295 204 346.5 195 c 132,-1,118
 398 186 398 186 432 132 c 4,119,120
 445 110 445 110 452.5 80 c 132,-1,121
 460 50 460 50 465.5 44.5 c 132,-1,122
 471 39 471 39 472 38 c 4,123,124
 498 25 498 25 523 39 c 4,125,126
 532 47 532 47 537 65 c 4,127,128
 558 141 558 141 590 167 c 4,129,130
 640 208 640 208 706 194 c 4,131,132
 731 188 731 188 757.5 172.5 c 132,-1,133
 784 157 784 157 791.5 156 c 132,-1,134
 799 155 799 155 803 155 c 4,135,136
 831 165 831 165 838 193 c 4,137,138
 838 205 838 205 828 222 c 4,139,140
 788 290 788 290 796.5 343.5 c 132,-1,141
 805 397 805 397 859 432 c 4,142,143
 880 445 880 445 910.5 452.5 c 132,-1,144
 941 460 941 460 947 465 c 4,145,146
 971 485 971 485 954 522 c 4,147,148
 946 532 946 532 928.5 536.5 c 132,-1,149
 911 541 911 541 908 542 c 4,150,151
 847 560 847 560 821 595 c 4,152,153
 767 667 767 667 819 757 c 4,154,155
 834 782 834 782 836 789 c 4,156,157
 844 818 844 818 804 838 c 4,158,159
 791 840 791 840 749.5 816.5 c 132,-1,160
 708 793 708 793 657 795 c 132,-1,161
 606 797 606 797 567 850 c 4,162,163
 550 874 550 874 541 906.5 c 132,-1,77
 532 939 532 939 528 945 c 132,-1,78
497.5 800 m 132,-1,165
 623 800 623 800 711.5 710 c 132,-1,166
 800 620 800 620 800 494.5 c 132,-1,167
 800 369 800 369 710 280.5 c 132,-1,168
 620 192 620 192 494.5 192 c 132,-1,169
 369 192 369 192 280.5 282 c 132,-1,170
 192 372 192 372 192 497.5 c 132,-1,171
 192 623 192 623 282 711.5 c 132,-1,164
 372 800 372 800 497.5 800 c 132,-1,165
483.5 608 m 132,-1,173
 437 608 437 608 410.5 569 c 132,-1,174
 384 530 384 530 384 483.5 c 132,-1,175
 384 437 384 437 423 410.5 c 132,-1,176
 462 384 462 384 508.5 384 c 132,-1,177
 555 384 555 384 581.5 423 c 132,-1,178
 608 462 608 462 608 508.5 c 132,-1,179
 608 555 608 555 569 581.5 c 132,-1,172
 530 608 530 608 483.5 608 c 132,-1,173
EndSplineSet
LCarets2: 2 0 0
Ligature2: "+BEEEPwRABDAEMgQ6BDAA 1" m s g
EndChar

StartChar: msg_err
Encoding: 61781 61781 132
Width: 1024
VWidth: 0
LayerCount: 2
Back
Fore
SplineSet
496 960 m 0,0,1
 671.333984375 960 671.333984375 960 800.147460938 846.349609375 c 0,2,3
 959.547851562 705.713867188 959.547851562 705.713867188 960 496 c 0,4,5
 960 320.666015625 960 320.666015625 846.349609375 191.852539062 c 0,6,7
 705.713867188 32.4521484375 705.713867188 32.4521484375 496 32 c 0,8,9
 320.666015625 32 320.666015625 32 191.852539062 145.650390625 c 128,-1,10
 63.0380859375 259.30078125 63.0380859375 259.30078125 37.4697265625 424.583984375 c 0,11,12
 32 459.9453125 32 459.9453125 32 496 c 0,13,14
 32 671.333984375 32 671.333984375 145.650390625 800.147460938 c 0,15,16
 286.286132812 959.547851562 286.286132812 959.547851562 496 960 c 0,0,1
496 928 m 0,17,18
 330.41015625 928 330.41015625 928 209.052734375 818.860351562 c 0,19,20
 64.4443359375 688.811523438 64.4443359375 688.811523438 64 496 c 0,21,22
 64 330.41015625 64 330.41015625 173.139648438 209.052734375 c 0,23,24
 303.188476562 64.4443359375 303.188476562 64.4443359375 496 64 c 0,25,26
 661.58984375 64 661.58984375 64 782.947265625 173.139648438 c 0,27,28
 927.555664062 303.188476562 927.555664062 303.188476562 928 496 c 0,29,30
 928 661.58984375 928 661.58984375 818.860351562 782.947265625 c 0,31,32
 688.811523438 927.555664062 688.811523438 927.555664062 496 928 c 0,17,18
496 896 m 0,33,34
 651.856445312 896 651.856445312 896 765.456054688 791.549804688 c 0,35,36
 895.563476562 671.922851562 895.563476562 671.922851562 896 496 c 0,37,38
 896 340.143554688 896 340.143554688 791.549804688 226.543945312 c 0,39,40
 671.922851562 96.4365234375 671.922851562 96.4365234375 496 96 c 0,41,42
 340.143554688 96 340.143554688 96 226.543945312 200.450195312 c 0,43,44
 96.4365234375 320.077148438 96.4365234375 320.077148438 96 496 c 0,45,46
 96 651.856445312 96 651.856445312 200.450195312 765.456054688 c 0,47,48
 320.478515625 896 320.478515625 896 496 896 c 0,33,34
224 576 m 1,49,-1
 224 416 l 1,50,-1
 768 416 l 1,51,-1
 768 576 l 1,52,-1
 224 576 l 1,49,-1
EndSplineSet
LCarets2: 5 0 0 0 0 0
Ligature2: "+BEEEPwRABDAEMgQ6BDAA 1" m s g e r r
EndChar

StartChar: msg_warn
Encoding: 61782 61782 133
Width: 1024
VWidth: 0
LayerCount: 2
Back
Fore
SplineSet
511.299804688 973.599609375 m 1,0,-1
 1015 64 l 1,1,-1
 6.896484375 64 l 1,2,-1
 511.299804688 973.599609375 l 1,0,-1
511.299804688 907.599609375 m 1,3,-1
 61.3701171875 96 l 1,4,-1
 960.799804688 96 l 1,5,-1
 511.299804688 907.599609375 l 1,3,-1
511.200195312 841.700195312 m 1,6,-1
 906.700195312 128 l 1,7,-1
 115.599609375 128 l 1,8,-1
 511.200195312 841.700195312 l 1,6,-1
511.200195312 775.700195312 m 1,9,-1
 170 160 l 1,10,-1
 852.200195312 160 l 1,11,-1
 511.200195312 775.700195312 l 1,9,-1
480 544 m 1,12,-1
 544 544 l 1,13,-1
 544 320 l 1,14,-1
 480 320 l 1,15,-1
 480 544 l 1,12,-1
480 288 m 1,16,-1
 544 288 l 1,17,-1
 544 224 l 1,18,-1
 480 224 l 1,19,-1
 480 288 l 1,16,-1
EndSplineSet
LCarets2: 6 0 0 0 0 0 0
Ligature2: "+BEEEPwRABDAEMgQ6BDAA 1" m s g w a r n
EndChar

StartChar: msg_up
Encoding: 61783 61783 134
Width: 1024
VWidth: 0
LayerCount: 2
Back
Fore
SplineSet
512 928 m 1,0,-1
 632 769.700195312 l 1,1,-1
 828.799804688 796.799804688 l 1,2,-1
 801.700195312 600 l 1,3,-1
 960 480 l 1,4,-1
 801.700195312 360 l 1,5,-1
 828.799804688 163.200195312 l 1,6,-1
 632 190.299804688 l 1,7,-1
 512 32 l 1,8,-1
 392 190.299804688 l 1,9,-1
 195.200195312 163.200195312 l 1,10,-1
 222.299804688 360 l 1,11,-1
 64 480 l 1,12,-1
 222.299804688 600 l 1,13,-1
 195.200195312 796.799804688 l 1,14,-1
 392 769.700195312 l 1,15,-1
 512 928 l 1,0,-1
512 864 m 1,16,-1
 409.099609375 728.299804688 l 1,17,-1
 240.5 751.5 l 1,18,-1
 263.599609375 582.900390625 l 1,19,-1
 128 480 l 1,20,-1
 263.599609375 377.200195312 l 1,21,-1
 240.5 208.5 l 1,22,-1
 409.099609375 231.700195312 l 1,23,-1
 512 96 l 1,24,-1
 614.799804688 231.700195312 l 1,25,-1
 783.5 208.5 l 1,26,-1
 760.299804688 377.200195312 l 1,27,-1
 896 480 l 1,28,-1
 760.299804688 582.900390625 l 1,29,-1
 783.5 751.5 l 1,30,-1
 614.799804688 728.299804688 l 1,31,-1
 512 864 l 1,16,-1
512 800 m 1,32,-1
 597.700195312 687 l 1,33,-1
 738.299804688 706.299804688 l 1,34,-1
 719 565.700195312 l 1,35,-1
 832 480 l 1,36,-1
 719 394.299804688 l 1,37,-1
 738.299804688 253.700195312 l 1,38,-1
 597.700195312 273.099609375 l 1,39,-1
 512 160 l 1,40,-1
 426.299804688 273.099609375 l 1,41,-1
 285.700195312 253.700195312 l 1,42,-1
 305.099609375 394.299804688 l 1,43,-1
 192 480 l 1,44,-1
 305.099609375 565.700195312 l 1,45,-1
 285.700195312 706.299804688 l 1,46,-1
 426.299804688 687 l 1,47,-1
 512 800 l 1,32,-1
416 576 m 1,48,-1
 416 448.5 l 1,49,-1
 352 448.5 l 1,50,-1
 511.400390625 286.900390625 l 1,51,-1
 673.099609375 448.5 l 1,52,-1
 608 448.5 l 1,53,-1
 608 576 l 1,54,-1
 416 576 l 1,48,-1
EndSplineSet
LCarets2: 4 0 0 0 0
Ligature2: "+BEEEPwRABDAEMgQ6BDAA 1" m s g u p
EndChar

StartChar: msg_tip
Encoding: 61784 61784 135
Width: 1024
VWidth: 0
LayerCount: 2
Back
Fore
SplineSet
285.29296875 875.181640625 m 0,0,1
 378.556640625 958.467773438 378.556640625 958.467773438 511.477539062 959.78515625 c 128,-1,2
 644.3984375 961.103515625 644.3984375 961.103515625 737.178710938 876.092773438 c 128,-1,3
 829.958984375 791.08203125 829.958984375 791.08203125 832 675.5 c 1,4,-1
 832 672 l 2,5,6
 832 557.010742188 832 557.010742188 766.684570312 468.981445312 c 0,7,8
 757.505859375 456.609375 757.505859375 456.609375 724.024414062 415.678710938 c 128,-1,9
 690.541992188 374.747070312 690.541992188 374.747070312 681.344726562 344.180664062 c 128,-1,10
 672.146484375 313.61328125 672.146484375 313.61328125 672 288 c 2,11,-1
 672 224 l 1,12,-1
 640 224 l 1,13,-1
 640 256 l 1,14,-1
 384 256 l 1,15,-1
 384 240 l 1,16,-1
 448 208 l 1,17,-1
 448 176 l 1,18,-1
 352 224 l 1,19,-1
 352 288 l 2,20,21
 352 348.721679688 352 348.721679688 303.469726562 411.043945312 c 0,22,23
 297.580078125 418.607421875 297.580078125 418.607421875 285.1484375 433.805664062 c 0,24,25
 229.262695312 502.125 229.262695312 502.125 210.715820312 554.442382812 c 128,-1,26
 192.168945312 606.759765625 192.168945312 606.759765625 192 672 c 0,27,28
 192.099609375 790.912109375 192.099609375 790.912109375 285.29296875 875.181640625 c 0,0,1
509.799804688 927.990234375 m 0,29,30
 394.716796875 928.571289062 394.716796875 928.571289062 309.905273438 853.583984375 c 128,-1,31
 225.094726562 778.595703125 225.094726562 778.595703125 224.547851562 673.986328125 c 128,-1,32
 224 569.376953125 224 569.376953125 285.2578125 486.23828125 c 0,33,34
 293.95703125 474.430664062 293.95703125 474.430664062 311.853515625 452.231445312 c 0,35,36
 362.424804688 389.501953125 362.424804688 389.501953125 375.13671875 348.733398438 c 0,37,38
 379.501953125 334.190429688 379.501953125 334.190429688 381.700195312 320 c 1,39,-1
 448 320 l 1,40,-1
 452.805664062 307.719726562 l 1,41,42
 468.734375 288.426757812 468.734375 288.426757812 504.3671875 288.212890625 c 128,-1,43
 540 288 540 288 556 296 c 128,-1,44
 572 304 572 304 574 312 c 2,45,-1
 576 320 l 1,46,-1
 642.299804688 320 l 1,47,48
 650.467773438 374.676757812 650.467773438 374.676757812 701.650390625 439.1484375 c 128,-1,49
 752.83203125 503.619140625 752.83203125 503.619140625 767.419921875 531.266601562 c 0,50,51
 799.751953125 593.821289062 799.751953125 593.821289062 800 672 c 0,52,53
 799.887695312 768.646484375 799.887695312 768.646484375 727.395507812 842.094726562 c 0,54,55
 702.861328125 866.48046875 702.861328125 866.48046875 674.799804688 882.900390625 c 0,56,57
 599.014648438 928.372070312 599.014648438 928.372070312 509.799804688 927.990234375 c 0,29,30
448 320 m 1,58,-1
 448 417.700195312 l 1,59,-1
 480 416 l 1,60,-1
 480 352 l 1,61,-1
 544 352 l 1,62,-1
 544 416 l 1,63,-1
 576 416 l 1,64,-1
 576 320 l 1,65,-1
 448 320 l 1,58,-1
471.431640625 893.388671875 m 0,66,67
 541.657226562 902.685546875 541.657226562 902.685546875 608 879.5 c 1,68,-1
 608 845.299804688 l 1,69,70
 560.495117188 864.098632812 560.495117188 864.098632812 510.200195312 864 c 0,71,72
 397.471679688 864.489257812 397.471679688 864.489257812 327.599609375 781.400390625 c 0,73,74
 277.845703125 721.793945312 277.845703125 721.793945312 290.124023438 644.633789062 c 0,75,76
 293.485351562 625.064453125 293.485351562 625.064453125 300.5 608 c 1,77,-1
 266.299804688 608 l 1,78,79
 238.052734375 690.677734375 238.052734375 690.677734375 281.131835938 769.640625 c 0,80,81
 290.368164062 786.115234375 290.368164062 786.115234375 301.299804688 799.700195312 c 0,82,83
 365.438476562 878.590820312 365.438476562 878.590820312 471.431640625 893.388671875 c 0,66,67
576 240 m 1,84,-1
 672 192 l 1,85,-1
 672 128 l 2,86,87
 672 108.215820312 672 108.215820312 651.791992188 98.75 c 0,88,89
 645.920898438 96 645.920898438 96 640.099609375 96 c 0,90,-1
 608 96 l 1,91,92
 608 58.623046875 608 58.623046875 564.213867188 40.9853515625 c 0,93,94
 541.177734375 32.181640625 541.177734375 32.181640625 512.299804688 32 c 0,95,96
 442.530273438 32 442.530273438 32 421.48046875 73.5078125 c 0,97,98
 416.237304688 84.8447265625 416.237304688 84.8447265625 416 96 c 1,99,-1
 384 96 l 2,100,101
 364.190429688 96 364.190429688 96 354.748046875 116.25 c 0,102,103
 352.225585938 122.634765625 352.225585938 122.634765625 352 128 c 2,104,-1
 352 192 l 1,105,-1
 384 192 l 1,106,-1
 384 128 l 1,107,-1
 640 128 l 1,108,-1
 640 176 l 1,109,-1
 576 208 l 1,110,-1
 576 240 l 1,84,-1
448 96 m 1,111,112
 454.547851562 65.861328125 454.547851562 65.861328125 512.200195312 64 c 0,113,114
 574.056640625 65.50390625 574.056640625 65.50390625 576 96 c 1,115,-1
 448 96 l 1,111,112
EndSplineSet
Ligature2: "+BEEEPwRABDAEMgQ6BDAA 1" m s g t i p
EndChar

StartChar: floppy
Encoding: 61785 61785 136
Width: 1024
VWidth: 0
LayerCount: 2
Back
Fore
SplineSet
736 764 m 1,0,-1
 896 604 l 1,1,-1
 896 -4 l 2,2,3
 896 -37 896 -37 864 -58 c 0,4,5
 848 -68 848 -68 832 -68 c 2,6,-1
 128 -68 l 2,7,8
 95 -68 95 -68 74 -36 c 0,9,10
 64 -20 64 -20 64 -4 c 2,11,-1
 64 700 l 2,12,13
 64 733 64 733 96 754 c 0,14,15
 112 764 112 764 128 764 c 2,16,-1
 736 764 l 1,0,-1
704 380 m 1,17,-1
 704 700 l 1,18,-1
 256 700 l 1,19,-1
 256 380 l 1,20,-1
 704 380 l 1,17,-1
640 636 m 1,21,-1
 640 444 l 1,22,-1
 512 444 l 1,23,-1
 512 636 l 1,24,-1
 640 636 l 1,21,-1
EndSplineSet
Ligature2: "+BEEEPwRABDAEMgQ6BDAA 1" f l o p p y
EndChar

StartChar: folder
Encoding: 61786 61786 137
Width: 1024
VWidth: 0
LayerCount: 2
Back
Fore
SplineSet
448 636 m 1,0,-1
 562 636 l 2,1,2
 700 636 700 636 772 636 c 0,3,4
 819 636 819 636 838 636 c 0,5,6
 887 636 887 636 930 585 c 0,7,8
 960 548 960 548 960 508 c 2,9,-1
 960 60 l 2,10,11
 960 4 960 4 909 -38 c 0,12,13
 872 -68 872 -68 832 -68 c 2,14,-1
 192 -68 l 2,15,16
 136 -68 136 -68 94 -17 c 0,17,18
 64 20 64 20 64 60 c 2,19,-1
 64 636 l 2,20,21
 64 692 64 692 115 734 c 0,22,23
 152 764 152 764 192 764 c 2,24,-1
 320 764 l 2,25,26
 376 764 376 764 418 713 c 0,27,28
 448 676 448 676 448 636 c 1,0,-1
192 700 m 2,29,30
 159 700 159 700 138 668 c 0,31,32
 128 652 128 652 128 636 c 2,33,-1
 128 444 l 1,34,-1
 896 444 l 1,35,-1
 896 508 l 2,36,37
 896 541 896 541 864 562 c 0,38,39
 848 572 848 572 832 572 c 2,40,-1
 448 572 l 2,41,42
 415 572 415 572 394 604 c 0,43,44
 384 620 384 620 384 636 c 0,45,46
 384 669 384 669 352 690 c 0,47,48
 336 700 336 700 320 700 c 2,49,-1
 192 700 l 2,29,30
128 380 m 1,50,-1
 128 60 l 2,51,52
 128 27 128 27 160 6 c 0,53,54
 176 -4 176 -4 192 -4 c 2,55,-1
 832 -4 l 2,56,57
 865 -4 865 -4 886 28 c 0,58,59
 896 44 896 44 896 60 c 2,60,-1
 896 380 l 1,61,-1
 128 380 l 1,50,-1
EndSplineSet
Ligature2: "+BEEEPwRABDAEMgQ6BDAA 1" f o l d e r
EndChar
